<svg xmlns="http://www.w3.org/2000/svg" width="203" height="124" viewBox="0 0 203 124" fill="none">
  <path d="M140.645 118.02C140.647 118.653 140.525 119.279 140.286 119.864C140.047 120.449 139.695 120.981 139.25 121.429C138.806 121.877 138.278 122.233 137.697 122.476C137.115 122.718 136.492 122.843 135.862 122.843L59.1451 123C58.5157 123.002 57.8921 122.879 57.3101 122.638C56.728 122.397 56.1989 122.044 55.753 121.597C55.3072 121.151 54.9532 120.621 54.7115 120.037C54.4697 119.453 54.3449 118.827 54.3441 118.195L54.2363 64.002L96.7007 37.2186C96.8907 37.0982 97.1105 37.0338 97.3351 37.0327C97.5598 37.0317 97.7802 37.094 97.9713 37.2126L139.543 63.2069L140.537 63.8272V64.6943L140.645 118.02Z" fill="#FF85B1"/>
  <path d="M134.385 41.8828H59.9309C59.7533 41.8828 59.6094 42.0274 59.6094 42.2058V122.247C59.6094 122.425 59.7533 122.57 59.9309 122.57H134.385C134.563 122.57 134.707 122.425 134.707 122.247V42.2058C134.707 42.0274 134.563 41.8828 134.385 41.8828Z" fill="#FFE2EC"/>
  <path d="M135.786 122.767L97.7072 93.5983C97.6766 93.5748 97.6519 93.5444 97.6352 93.5094C97.6186 93.4745 97.6104 93.4361 97.6114 93.3973C97.6124 93.3586 97.6225 93.3207 97.641 93.2866C97.6594 93.2526 97.6856 93.2235 97.7174 93.2016L140.154 64.0621C140.191 64.0371 140.233 64.0225 140.278 64.0199C140.322 64.0174 140.366 64.027 140.405 64.0477C140.444 64.0685 140.477 64.0995 140.5 64.1376C140.523 64.1757 140.535 64.2193 140.535 64.2638L140.642 117.994C140.645 119.256 140.154 120.469 139.276 121.371C138.398 122.274 137.202 122.794 135.946 122.82C135.888 122.821 135.832 122.802 135.786 122.767Z" fill="#FF97BC"/>
  <path d="M59.2083 122.92L97.1704 93.5996C97.201 93.576 97.2256 93.5454 97.2421 93.5104C97.2586 93.4754 97.2666 93.437 97.2655 93.3982C97.2643 93.3595 97.2541 93.3216 97.2355 93.2876C97.2169 93.2537 97.1906 93.2246 97.1587 93.2029L54.6069 64.234C54.5702 64.2091 54.5275 64.1946 54.4833 64.1922C54.439 64.1899 54.395 64.1996 54.3559 64.2205C54.3168 64.2414 54.2841 64.2726 54.2613 64.3107C54.2385 64.3489 54.2265 64.3926 54.2266 64.437L54.3337 118.167C54.3362 119.429 54.8317 120.64 55.7134 121.539C56.5952 122.438 57.7929 122.953 59.0489 122.974C59.1065 122.975 59.1626 122.956 59.2083 122.92Z" fill="#FF97BC"/>
  <path d="M135.855 122.821L59.1377 122.975C57.9771 122.974 56.8561 122.551 55.9815 121.785C55.107 121.018 54.538 119.96 54.3796 118.805C54.3536 118.608 54.3762 118.407 54.4457 118.221C54.5151 118.035 54.6291 117.869 54.7776 117.738L96.6196 80.548C96.8381 80.3537 97.1197 80.2462 97.4114 80.2456C97.7032 80.245 97.9852 80.3514 98.2045 80.5447L140.194 117.567C140.343 117.697 140.457 117.863 140.528 118.048C140.598 118.234 140.621 118.434 140.596 118.631C140.442 119.787 139.878 120.848 139.006 121.618C138.135 122.388 137.015 122.815 135.855 122.821Z" fill="#FF85B1"/>
  <path fill-rule="evenodd" clip-rule="evenodd" d="M23.4425 76C23.5671 71.3988 21.6514 66.8104 17.451 64.0411C15.8244 62.9688 13.8976 62.5783 12 62.2539C19.7092 61.9953 22.3855 54.1068 23.4582 48C23.0857 53.477 26.0146 59.393 32 59.9389C26.0416 63.3659 23.9967 69.6547 23.4425 76Z" stroke="#FED600" stroke-miterlimit="1.5" stroke-linecap="round" stroke-linejoin="round"/>
  <path fill-rule="evenodd" clip-rule="evenodd" d="M158.154 37C158.254 33.0561 156.721 29.1232 153.361 26.7495C152.06 25.8304 150.518 25.4957 149 25.2176C155.167 24.996 157.308 18.2344 158.167 13C157.869 17.6946 160.212 22.7654 165 23.2333C160.233 26.1708 158.597 31.5612 158.154 37Z" stroke="#FED600" stroke-miterlimit="1.5" stroke-linecap="round" stroke-linejoin="round"/>
</svg>