<svg width="168" height="64" viewBox="0 0 168 64" fill="none" xmlns="http://www.w3.org/2000/svg">
<g filter="url(#filter0_dd_1641_68538)">
<rect x="8.5" y="8" width="151.5" height="48" rx="24" fill="#2388FF"/>
<path fill-rule="evenodd" clip-rule="evenodd" d="M36.75 27L38 25.75H44.7675L49.25 30.2325V39.5L48 40.75H38L36.75 39.5V27ZM48 30.75L44.25 27H38V39.5H48V30.75Z" fill="white"/>
<path fill-rule="evenodd" clip-rule="evenodd" d="M35.5 23.25L34.25 24.5V37L35.5 38.25V24.5H43.5175L42.2675 23.25H35.5Z" fill="white"/>
<path d="M57.0073 31.736C59.9473 31.4 61.3613 29.93 61.5153 28.53H57.6373V27.06H61.5433V25.478H63.3913V27.06H67.2973V28.53H63.4193C63.5733 29.93 64.9873 31.4 67.9273 31.736L67.2693 33.192C64.8473 32.87 63.3213 31.96 62.4673 30.616C61.6133 31.96 60.0873 32.87 57.6653 33.192L57.0073 31.736ZM68.3053 36.734H56.6293V35.236H61.5433V32.744H63.3913V35.236H68.3053V36.734ZM80.5683 38.204H78.8183V31.75H77.6562V37.602H75.9343V25.548H77.6562V30.266H78.8183V25.296H80.5683V38.204ZM71.6923 33.78C72.9243 33.738 73.9883 33.682 75.2203 33.458L75.3603 34.956C73.7923 35.25 72.4062 35.306 70.7683 35.306H69.8723V26.794H74.6463V28.292H71.6923V33.78ZM91.2352 33.136V25.31H93.0972V33.136H91.2352ZM90.3812 32.24C88.4632 32.576 86.7552 32.618 84.1792 32.618H83.0452V28.628H87.1472V27.536H83.0312V26.066H88.9672V30H84.8652V31.134C86.9932 31.134 88.4912 31.064 90.1712 30.77L90.3812 32.24ZM88.7572 33.374C91.5012 33.374 93.1812 34.27 93.1812 35.796C93.1812 37.322 91.5012 38.218 88.7572 38.218C86.0272 38.218 84.3472 37.322 84.3472 35.796C84.3472 34.27 86.0272 33.374 88.7572 33.374ZM88.7572 36.79C90.4792 36.79 91.3332 36.454 91.3332 35.796C91.3332 35.138 90.4792 34.816 88.7572 34.816C87.0492 34.816 86.1952 35.138 86.1952 35.796C86.1952 36.454 87.0492 36.79 88.7572 36.79ZM103.904 29.986C103.946 29.272 103.932 28.6 103.932 27.942V27.914H96.5821V26.444H105.752V27.942C105.752 29.846 105.752 31.582 105.15 34.396L103.33 34.214C103.596 33.15 103.708 32.254 103.806 31.358L96.4421 31.736L96.2181 30.238L103.904 29.986ZM106.928 36.678H95.2801V35.166H106.928V36.678ZM122.979 33.15H111.317V31.68H116.203V30.616H112.801V25.646H114.635V26.78H119.661V25.646H121.495V30.616H118.051V31.68H122.979V33.15ZM119.661 29.174V28.166H114.635V29.174H119.661ZM121.565 34.032V38.218H119.717V35.502H112.605V34.032H121.565ZM134.29 31.806V38.204H132.442V25.31H134.29V30.266H136.166V31.806H134.29ZM128.942 28.18C128.942 30.504 129.852 32.856 131.924 33.864L130.804 35.32C129.46 34.634 128.564 33.43 128.018 31.848C127.458 33.486 126.492 34.844 125.036 35.558L123.93 34.06C126.1 33.052 127.08 30.574 127.08 28.18V26.304H128.942V28.18Z" fill="white"/>
</g>
<defs>
<filter id="filter0_dd_1641_68538" x="0.5" y="0" width="167.5" height="64" filterUnits="userSpaceOnUse" color-interpolation-filters="sRGB">
<feFlood flood-opacity="0" result="BackgroundImageFix"/>
<feColorMatrix in="SourceAlpha" type="matrix" values="0 0 0 0 0 0 0 0 0 0 0 0 0 0 0 0 0 0 127 0" result="hardAlpha"/>
<feOffset/>
<feGaussianBlur stdDeviation="4"/>
<feColorMatrix type="matrix" values="0 0 0 0 0.0784314 0 0 0 0 0.0784314 0 0 0 0 0.0784314 0 0 0 0.08 0"/>
<feBlend mode="normal" in2="BackgroundImageFix" result="effect1_dropShadow_1641_68538"/>
<feColorMatrix in="SourceAlpha" type="matrix" values="0 0 0 0 0 0 0 0 0 0 0 0 0 0 0 0 0 0 127 0" result="hardAlpha"/>
<feOffset/>
<feGaussianBlur stdDeviation="0.5"/>
<feColorMatrix type="matrix" values="0 0 0 0 0.0784314 0 0 0 0 0.0784314 0 0 0 0 0.0784314 0 0 0 0.04 0"/>
<feBlend mode="normal" in2="effect1_dropShadow_1641_68538" result="effect2_dropShadow_1641_68538"/>
<feBlend mode="normal" in="SourceGraphic" in2="effect2_dropShadow_1641_68538" result="shape"/>
</filter>
</defs>
</svg>
