<svg width="168" height="64" viewBox="0 0 168 64" fill="none" xmlns="http://www.w3.org/2000/svg">
<g filter="url(#filter0_dd_1641_68532)">
<rect x="8" y="8" width="151.5" height="48" rx="24" fill="#FFE246"/>
<path d="M41.25 24.5C46.0825 24.5 50 27.5533 50 31.3208C50 35.0875 46.0825 38.1408 41.25 38.1408C40.7688 38.1411 40.2881 38.1105 39.8108 38.0492L36.1375 40.4517C35.72 40.6725 35.5725 40.6483 35.7442 40.1075L36.4875 37.0425C34.0875 35.8258 32.5 33.7175 32.5 31.3208C32.5 27.5542 36.4175 24.5 41.25 24.5ZM46.1725 31.2167L47.3975 30.03C47.4682 29.9566 47.5076 29.8586 47.5075 29.7567C47.5074 29.6548 47.4677 29.5569 47.3968 29.4837C47.326 29.4104 47.2295 29.3676 47.1276 29.3641C47.0258 29.3606 46.9265 29.3968 46.8508 29.465L45.2442 31.02V29.735C45.2442 29.6307 45.2027 29.5306 45.129 29.4569C45.0552 29.3831 44.9552 29.3417 44.8508 29.3417C44.7465 29.3417 44.6465 29.3831 44.5727 29.4569C44.4989 29.5306 44.4575 29.6307 44.4575 29.735V31.8658C44.4428 31.9266 44.4428 31.99 44.4575 32.0508V33.25C44.4575 33.3543 44.4989 33.4544 44.5727 33.5281C44.6465 33.6019 44.7465 33.6433 44.8508 33.6433C44.9552 33.6433 45.0552 33.6019 45.129 33.5281C45.2027 33.4544 45.2442 33.3543 45.2442 33.25V32.1142L45.6 31.77L46.79 33.4642C46.8197 33.5065 46.8575 33.5425 46.9011 33.5702C46.9447 33.5979 46.9934 33.6167 47.0443 33.6256C47.0952 33.6345 47.1474 33.6333 47.1979 33.6221C47.2483 33.6108 47.296 33.5897 47.3383 33.56C47.3806 33.5303 47.4167 33.4925 47.4444 33.4489C47.4721 33.4053 47.4909 33.3566 47.4998 33.3057C47.5087 33.2548 47.5075 33.2026 47.4962 33.1521C47.485 33.1017 47.4639 33.054 47.4342 33.0117L46.1725 31.2158V31.2167ZM43.7075 32.82H42.4908V29.7475C42.4862 29.6464 42.4427 29.551 42.3696 29.4811C42.2964 29.4113 42.1991 29.3723 42.0979 29.3723C41.9967 29.3723 41.8994 29.4113 41.8263 29.4811C41.7531 29.551 41.7097 29.6464 41.705 29.7475V33.2133C41.705 33.43 41.88 33.6067 42.0975 33.6067H43.7075C43.8118 33.6067 43.9119 33.5652 43.9856 33.4915C44.0594 33.4177 44.1008 33.3177 44.1008 33.2133C44.1008 33.109 44.0594 33.009 43.9856 32.9352C43.9119 32.8614 43.8118 32.82 43.7075 32.82ZM38.8267 31.91L39.4067 30.4875L39.9383 31.91H38.8267ZM40.9292 32.3167L40.9308 32.3033C40.9306 32.2042 40.8928 32.1089 40.825 32.0367L39.9533 29.7033C39.9168 29.5921 39.8472 29.4947 39.7538 29.4242C39.6605 29.3536 39.5478 29.3132 39.4308 29.3083C39.313 29.3078 39.1979 29.3432 39.1007 29.4097C39.0035 29.4763 38.9288 29.5708 38.8867 29.6808L37.5025 33.0767C37.483 33.1245 37.473 33.1757 37.4733 33.2274C37.4736 33.279 37.484 33.3301 37.504 33.3777C37.524 33.4254 37.5532 33.4686 37.5899 33.5049C37.6266 33.5413 37.6701 33.5701 37.7179 33.5896C37.7657 33.6091 37.8169 33.619 37.8686 33.6188C37.9203 33.6185 37.9714 33.6081 38.019 33.5881C38.0666 33.5681 38.1098 33.5389 38.1462 33.5022C38.1825 33.4655 38.2113 33.422 38.2308 33.3742L38.5058 32.6967H40.2308L40.48 33.3633C40.4969 33.4132 40.5237 33.4591 40.5587 33.4984C40.5937 33.5377 40.6363 33.5696 40.6838 33.5921C40.7314 33.6147 40.783 33.6275 40.8356 33.6297C40.8882 33.632 40.9407 33.6236 40.99 33.6052C41.0393 33.5868 41.0844 33.5587 41.1226 33.5225C41.1609 33.4864 41.1915 33.4429 41.2126 33.3947C41.2338 33.3465 41.245 33.2946 41.2457 33.2419C41.2464 33.1893 41.2365 33.1371 41.2167 33.0883L40.9292 32.3167ZM38.1608 29.7517C38.1608 29.6475 38.1195 29.5476 38.0459 29.4738C37.9723 29.4001 37.8725 29.3586 37.7683 29.3583H35.0642C34.9598 29.3583 34.8598 29.3998 34.786 29.4735C34.7123 29.5473 34.6708 29.6473 34.6708 29.7517C34.6708 29.856 34.7123 29.956 34.786 30.0298C34.8598 30.1036 34.9598 30.145 35.0642 30.145H36.0308V33.2583C36.0308 33.3627 36.0723 33.4627 36.146 33.5365C36.2198 33.6102 36.3198 33.6517 36.4242 33.6517C36.5285 33.6517 36.6285 33.6102 36.7023 33.5365C36.7761 33.4627 36.8175 33.3627 36.8175 33.2583V30.145H37.7675C37.985 30.145 38.1608 29.9683 38.1608 29.7517Z" fill="#23272F"/>
<path d="M66.2233 31.75V38.176H64.3753V25.296H66.2233V30.224H68.0293V31.75H66.2233ZM62.7933 26.542C62.7933 30.504 61.8553 33.822 57.0533 36.286L56.0733 34.858C58.1873 33.808 59.4333 32.604 60.1613 31.19L56.4233 31.554L56.1853 29.986L60.6933 29.72C60.8193 29.174 60.9173 28.628 60.9593 28.012H56.8713V26.542H62.7933ZM79.1023 31.75V38.176H77.2543V25.296H79.1023V30.224H80.9083V31.75H79.1023ZM75.6723 26.542C75.6723 30.504 74.7343 33.822 69.9323 36.286L68.9523 34.858C71.0663 33.808 72.3123 32.604 73.0403 31.19L69.3023 31.554L69.0643 29.986L73.5723 29.72C73.6983 29.174 73.7963 28.628 73.8383 28.012H69.7503V26.542H75.6723ZM93.5632 36.706H81.8872V35.208H86.7872V33.024C84.5052 32.758 82.9092 31.428 82.9092 29.524C82.9092 27.354 84.9672 25.968 87.7112 25.968C90.4692 25.968 92.5272 27.354 92.5272 29.524C92.5272 31.428 90.9172 32.758 88.6352 33.024V35.208H93.5632V36.706ZM84.7292 29.524C84.7292 30.84 85.9472 31.61 87.7112 31.61C89.4892 31.61 90.7072 30.84 90.7072 29.524C90.7072 28.208 89.4892 27.438 87.7112 27.438C85.9472 27.438 84.7292 28.208 84.7292 29.524ZM106.414 33.612H94.7521V32.142H99.6521V31.218H96.2081V25.618H105.084V27.018H98.0421V27.718H104.776V29.062H98.0421V29.818H105.182V31.218H101.5V32.142H106.414V33.612ZM104.986 34.368V38.218H103.138V35.824H96.0541V34.368H104.986ZM111.195 31.736C114.135 31.4 115.549 29.93 115.703 28.53H111.825V27.06H115.731V25.478H117.579V27.06H121.485V28.53H117.607C117.761 29.93 119.175 31.4 122.115 31.736L121.457 33.192C119.035 32.87 117.509 31.96 116.655 30.616C115.801 31.96 114.275 32.87 111.853 33.192L111.195 31.736ZM122.493 36.734H110.817V35.236H115.731V32.744H117.579V35.236H122.493V36.734ZM134.756 38.204H133.006V31.75H131.844V37.602H130.122V25.548H131.844V30.266H133.006V25.296H134.756V38.204ZM125.88 33.78C127.112 33.738 128.176 33.682 129.408 33.458L129.548 34.956C127.98 35.25 126.594 35.306 124.956 35.306H124.06V26.794H128.834V28.292H125.88V33.78Z" fill="#1D2433"/>
</g>
<defs>
<filter id="filter0_dd_1641_68532" x="0" y="0" width="167.5" height="64" filterUnits="userSpaceOnUse" color-interpolation-filters="sRGB">
<feFlood flood-opacity="0" result="BackgroundImageFix"/>
<feColorMatrix in="SourceAlpha" type="matrix" values="0 0 0 0 0 0 0 0 0 0 0 0 0 0 0 0 0 0 127 0" result="hardAlpha"/>
<feOffset/>
<feGaussianBlur stdDeviation="4"/>
<feColorMatrix type="matrix" values="0 0 0 0 0.0784314 0 0 0 0 0.0784314 0 0 0 0 0.0784314 0 0 0 0.08 0"/>
<feBlend mode="normal" in2="BackgroundImageFix" result="effect1_dropShadow_1641_68532"/>
<feColorMatrix in="SourceAlpha" type="matrix" values="0 0 0 0 0 0 0 0 0 0 0 0 0 0 0 0 0 0 127 0" result="hardAlpha"/>
<feOffset/>
<feGaussianBlur stdDeviation="0.5"/>
<feColorMatrix type="matrix" values="0 0 0 0 0.0784314 0 0 0 0 0.0784314 0 0 0 0 0.0784314 0 0 0 0.04 0"/>
<feBlend mode="normal" in2="effect1_dropShadow_1641_68532" result="effect2_dropShadow_1641_68532"/>
<feBlend mode="normal" in="SourceGraphic" in2="effect2_dropShadow_1641_68532" result="shape"/>
</filter>
</defs>
</svg>
