<svg
    xmlns="http://www.w3.org/2000/svg"
    width="24"
    height="30"
    viewBox="0 0 24 30"
    fill="none"
  >
    <path
      d="M-3.10839e-10 3C-1.39167e-10 1.34315 1.34315 1.39167e-10 3 3.10839e-10L21 2.17587e-09C22.6569 2.34754e-09 24 1.34315 24 3L24 22L12 30L-2.27949e-09 22L-3.10839e-10 3Z"
      fill="#2388FF"
    />
    <path
      d="M20.0695 8.08789L20.0695 18.9359L18.8335 18.9359L18.8335 8.08789L20.0695 8.08789ZM14.6335 13.1039C13.0135 13.1039 11.8375 12.1679 11.8375 10.8239C11.8375 9.49189 13.0135 8.55589 14.6335 8.55589C16.2535 8.55589 17.4295 9.49189 17.4295 10.8239C17.4295 12.1679 16.2535 13.1039 14.6335 13.1039ZM14.6335 9.57589C13.6735 9.57589 13.0255 10.0559 13.0255 10.8239C13.0255 11.5919 13.6735 12.0839 14.6335 12.0839C15.5935 12.0839 16.2415 11.5919 16.2415 10.8239C16.2415 10.0559 15.5935 9.57589 14.6335 9.57589ZM18.2095 14.4239C17.2495 14.6159 16.2655 14.7119 15.3055 14.7959L15.3055 18.5999L14.0695 18.5999L14.0695 14.8679C13.0495 14.9039 12.1135 14.9159 11.2495 14.9159L11.1055 13.8959C13.0495 13.8959 15.7975 13.8599 18.1255 13.5119L18.2095 14.4239Z"
      fill="white"
    />
    <path
      d="M10.0293 18.0001L4.0293 18.0001L4.0293 17.2321L7.0173 14.2321C7.4253 13.8241 7.8093 13.4161 8.1213 12.9241C8.7213 11.8441 8.7933 10.1641 7.0893 10.1641C6.1413 10.1641 5.4333 10.8601 5.5053 11.8081L4.1853 11.5681C4.4133 9.98413 5.5173 9.03613 7.1613 9.03613C8.6493 9.03613 9.8733 9.92413 9.8733 11.5321C9.8733 12.8761 8.9493 13.8241 8.0613 14.7121L5.8053 16.9921C6.1773 16.8961 6.5733 16.8241 6.9573 16.8241L10.0293 16.8241L10.0293 18.0001Z"
      fill="white"
    />
  </svg>