<svg
    xmlns="http://www.w3.org/2000/svg"
    width="24"
    height="30"
    viewBox="0 0 24 30"
    fill="none"
  >
    <path
      d="M-3.10839e-10 3C-1.39167e-10 1.34315 1.34315 1.39167e-10 3 3.10839e-10L21 2.17587e-09C22.6569 2.34754e-09 24 1.34315 24 3L24 22L12 30L-2.27949e-09 22L-3.10839e-10 3Z"
      fill="#E23774"
    />
    <path
      d="M20.0707 8.08789L20.0707 18.9359L18.8347 18.9359L18.8347 8.08789L20.0707 8.08789ZM14.6347 13.1039C13.0147 13.1039 11.8387 12.1679 11.8387 10.8239C11.8387 9.49189 13.0147 8.55589 14.6347 8.55589C16.2547 8.55589 17.4307 9.49189 17.4307 10.8239C17.4307 12.1679 16.2547 13.1039 14.6347 13.1039ZM14.6347 9.57589C13.6747 9.57589 13.0267 10.0559 13.0267 10.8239C13.0267 11.5919 13.6747 12.0839 14.6347 12.0839C15.5947 12.0839 16.2427 11.5919 16.2427 10.8239C16.2427 10.0559 15.5947 9.57589 14.6347 9.57589ZM18.2107 14.4239C17.2507 14.6159 16.2667 14.7119 15.3067 14.7959L15.3067 18.5999L14.0707 18.5999L14.0707 14.8679C13.0507 14.9039 12.1147 14.9159 11.2507 14.9159L11.1067 13.8959C13.0507 13.8959 15.7987 13.8599 18.1267 13.5119L18.2107 14.4239Z"
      fill="white"
    />
    <path
      d="M5.36225 12.0479L4.63025 11.1599L7.03025 9.10791L8.11025 9.10791L8.11025 16.8479L9.77825 16.8479L9.77825 17.9999L4.94225 17.9999L4.94225 16.8479L6.79025 16.8479L6.79025 11.4359C6.79025 11.2439 6.79025 11.0399 6.80225 10.8359L5.36225 12.0479Z"
      fill="white"
    />
  </svg>