<svg xmlns="http://www.w3.org/2000/svg" width="16" height="16" viewBox="0 0 16 16" fill="none">
  <path d="M2 5.99996C2 5.26358 2.59695 4.66663 3.33333 4.66663H3.95309C4.39889 4.66663 4.8152 4.44383 5.06249 4.07289L5.60418 3.26036C5.85147 2.88943 6.26777 2.66663 6.7136 2.66663H9.2864C9.7322 2.66663 10.1485 2.88943 10.3958 3.26036L10.9375 4.07289C11.1848 4.44383 11.6011 4.66663 12.0469 4.66663H12.6667C13.4031 4.66663 14 5.26358 14 5.99996V12C14 12.7364 13.4031 13.3333 12.6667 13.3333H3.33333C2.59695 13.3333 2 12.7364 2 12V5.99996Z" stroke="#23272F" stroke-width="1.33333" stroke-linecap="round" stroke-linejoin="round"/>
  <path d="M10 8.66663C10 9.77123 9.1046 10.6666 8 10.6666C6.8954 10.6666 6 9.77123 6 8.66663C6 7.56203 6.8954 6.66663 8 6.66663C9.1046 6.66663 10 7.56203 10 8.66663Z" stroke="#23272F" stroke-width="1.33333" stroke-linecap="round" stroke-linejoin="round"/>
</svg>