<svg width="32" height="32" viewBox="0 0 32 32" fill="none" xmlns="http://www.w3.org/2000/svg">
<g id="bx-map-pin">
<path id="Vector" d="M15.9993 22.666L17.3327 19.9993V13.1433C19.6273 12.5473 21.3327 10.4767 21.3327 7.99935C21.3327 5.05802 18.9407 2.66602 15.9993 2.66602C13.058 2.66602 10.666 5.05802 10.666 7.99935C10.666 10.4767 12.3713 12.5473 14.666 13.1433V19.9993L15.9993 22.666ZM13.3327 7.99935C13.3327 6.52868 14.5287 5.33268 15.9993 5.33268C17.47 5.33268 18.666 6.52868 18.666 7.99935C18.666 9.47002 17.47 10.666 15.9993 10.666C14.5287 10.666 13.3327 9.47002 13.3327 7.99935Z" fill="#23272F"/>
<path id="Vector_2" d="M21.6887 14.0853L20.978 16.656C24.4327 17.6107 26.666 19.4467 26.666 21.3347C26.666 23.8573 22.286 26.668 15.9993 26.668C9.71268 26.668 5.33268 23.8573 5.33268 21.3347C5.33268 19.4467 7.56602 17.6107 11.022 16.6547L10.3113 14.084C5.59535 15.388 2.66602 18.1653 2.66602 21.3347C2.66602 25.82 8.52335 29.3347 15.9993 29.3347C23.4753 29.3347 29.3327 25.82 29.3327 21.3347C29.3327 18.1653 26.4034 15.388 21.6887 14.0853Z" fill="#23272F"/>
</g>
</svg>
