<svg width="16" height="16" viewBox="0 0 16 16" fill="none" xmlns="http://www.w3.org/2000/svg">
<g id="pencil">
<path id="Vector (Stroke)" fill-rule="evenodd" clip-rule="evenodd" d="M12.4285 3.5716C12.1102 3.25391 11.5935 3.25391 11.2752 3.5716L10.8591 3.98687L12.0105 5.136L12.4285 4.71887C12.7461 4.40191 12.7461 3.88856 12.4285 3.5716ZM11.0668 6.07788L9.9154 4.92875L3.33333 11.4978V12.6667H4.46499L11.0668 6.07788ZM2.19573 10.7494C2.07042 10.8745 2 11.0443 2 11.2213V13.3333C2 13.7015 2.29848 14 2.66667 14H4.74075C4.91733 14 5.0867 13.9299 5.21169 13.8052L13.3704 5.66261C14.2099 4.82474 14.2099 3.46573 13.3704 2.62786C12.5316 1.79071 11.1722 1.79071 10.3334 2.62786L2.19573 10.7494Z" fill="#23272F"/>
</g>
</svg>
