<svg width="33" height="32" viewBox="0 0 33 32" fill="none" xmlns="http://www.w3.org/2000/svg">
<g id="star">
<path id="Vector" d="M28.8775 11.0328L20.9431 9.8797L17.3962 2.68907C17.2993 2.4922 17.1399 2.33282 16.9431 2.23595C16.4493 1.9922 15.8493 2.19532 15.6024 2.68907L12.0556 9.8797L4.1212 11.0328C3.90245 11.0641 3.70245 11.1672 3.54933 11.3235C3.36421 11.5137 3.2622 11.7697 3.26571 12.0351C3.26923 12.3006 3.37798 12.5538 3.56808 12.7391L9.3087 18.3359L7.95245 26.2391C7.92065 26.4229 7.94099 26.612 8.01118 26.7849C8.08136 26.9577 8.19858 27.1075 8.34954 27.2171C8.5005 27.3268 8.67916 27.3919 8.86526 27.4052C9.05136 27.4185 9.23746 27.3793 9.40245 27.2922L16.4993 23.5609L23.5962 27.2922C23.7899 27.3953 24.015 27.4297 24.2306 27.3922C24.7743 27.2985 25.1399 26.7828 25.0462 26.2391L23.69 18.3359L29.4306 12.7391C29.5868 12.5859 29.69 12.386 29.7212 12.1672C29.8056 11.6203 29.4243 11.1141 28.8775 11.0328ZM21.2743 17.5484L22.4025 24.1203L16.4993 21.0203L10.5962 24.1234L11.7243 17.5516L6.94933 12.8953L13.5493 11.9359L16.4993 5.95782L19.4493 11.9359L26.0493 12.8953L21.2743 17.5484Z" fill="#23272F"/>
</g>
</svg>
