<svg width="16" height="16" viewBox="0 0 16 16" fill="none" xmlns="http://www.w3.org/2000/svg">
<g id="trash">
<path id="Vector" d="M2.66602 4.66667L13.3327 4.66667M12.666 4.66667L12.0878 12.7617C12.0379 13.4594 11.4573 14 10.7579 14L5.24084 14C4.54132 14 3.96074 13.4594 3.9109 12.7617L3.33268 4.66667L12.666 4.66667ZM6.66602 7.33333L6.66602 11.3333L6.66602 7.33333ZM9.33268 7.33333L9.33268 11.3333L9.33268 7.33333ZM9.99935 4.66667L9.99935 2.66667C9.99935 2.29848 9.70088 2 9.33268 2L6.66602 2C6.29783 2 5.99935 2.29848 5.99935 2.66667L5.99935 4.66667L9.99935 4.66667Z" stroke="#23272F" stroke-width="1.33333" stroke-linecap="round" stroke-linejoin="round"/>
</g>
</svg>
