<svg width="32" height="32" viewBox="0 0 32 32" fill="none" xmlns="http://www.w3.org/2000/svg">
<path d="M32 16C32 7.16344 24.8366 0 16 0C7.16344 0 0 7.16344 0 16C0 24.8366 7.16344 32 16 32C24.8366 32 32 24.8366 32 16Z" fill="#2388FF"/>
<path d="M7.66669 8.5H23.615C23.6881 8.49988 23.7598 8.51896 23.8232 8.55532C23.8865 8.59169 23.9392 8.64406 23.9759 8.7072C24.0126 8.77034 24.0321 8.84201 24.0324 8.91505C24.0327 8.98809 24.0137 9.05991 23.9775 9.12333L21 14.3333L23.9775 19.5433C24.0137 19.6068 24.0327 19.6786 24.0324 19.7516C24.0321 19.8247 24.0126 19.8963 23.9759 19.9595C23.9392 20.0226 23.8865 20.075 23.8232 20.1113C23.7598 20.1477 23.6881 20.1668 23.615 20.1667H9.33335V24.3333H7.66669V8.5Z" fill="white"/>
</svg>
