<svg width="50" height="58" viewBox="0 0 50 58" fill="none" xmlns="http://www.w3.org/2000/svg">
<g filter="url(#filter0_f_987_37356)">
<path d="M32 51.5386C32 52.8132 28.866 53.8463 25 53.8463C21.134 53.8463 18 52.8132 18 51.5386C18 50.2641 21.134 49.231 25 49.231C28.866 49.231 32 50.2641 32 51.5386Z" fill="black" fill-opacity="0.2"/>
</g>
<g filter="url(#filter1_d_987_37356)">
<path fill-rule="evenodd" clip-rule="evenodd" d="M25 4C36.0457 4 45 13.0259 45 24.16C45 32.6969 39.7359 39.9944 32.3013 42.9344L26.1391 51.4246C26.0107 51.6024 25.8401 51.7474 25.6418 51.8476C25.4436 51.9477 25.2234 52 25 52C24.7766 52 24.5564 51.9477 24.3582 51.8476C24.1599 51.7474 23.9893 51.6024 23.8609 51.4246L17.6987 42.9344C10.2641 39.9944 5 32.6969 5 24.16C5 13.0259 13.9543 4 25 4Z" fill="#2388FF"/>
</g>
<path d="M41 24C41 15.1634 33.8366 8 25 8C16.1634 8 9 15.1634 9 24C9 32.8366 16.1634 40 25 40C33.8366 40 41 32.8366 41 24Z" fill="white"/>
<path d="M16.6666 16.5H32.615C32.688 16.4999 32.7598 16.519 32.8231 16.5553C32.8865 16.5917 32.9391 16.6441 32.9758 16.7072C33.0126 16.7703 33.032 16.842 33.0323 16.9151C33.0326 16.9881 33.0137 17.0599 32.9775 17.1233L30 22.3333L32.9775 27.5433C33.0137 27.6068 33.0326 27.6786 33.0323 27.7516C33.032 27.8247 33.0126 27.8963 32.9758 27.9595C32.9391 28.0226 32.8865 28.075 32.8231 28.1113C32.7598 28.1477 32.688 28.1668 32.615 28.1667H18.3333V32.3333H16.6666V16.5Z" fill="#2388FF"/>
<defs>
<filter id="filter0_f_987_37356" x="16" y="47.231" width="18" height="8.61523" filterUnits="userSpaceOnUse" color-interpolation-filters="sRGB">
<feFlood flood-opacity="0" result="BackgroundImageFix"/>
<feBlend mode="normal" in="SourceGraphic" in2="BackgroundImageFix" result="shape"/>
<feGaussianBlur stdDeviation="1" result="effect1_foregroundBlur_987_37356"/>
</filter>
<filter id="filter1_d_987_37356" x="0" y="0" width="50" height="58" filterUnits="userSpaceOnUse" color-interpolation-filters="sRGB">
<feFlood flood-opacity="0" result="BackgroundImageFix"/>
<feColorMatrix in="SourceAlpha" type="matrix" values="0 0 0 0 0 0 0 0 0 0 0 0 0 0 0 0 0 0 127 0" result="hardAlpha"/>
<feOffset dy="1"/>
<feGaussianBlur stdDeviation="2.5"/>
<feComposite in2="hardAlpha" operator="out"/>
<feColorMatrix type="matrix" values="0 0 0 0 0 0 0 0 0 0 0 0 0 0 0 0 0 0 0.1 0"/>
<feBlend mode="normal" in2="BackgroundImageFix" result="effect1_dropShadow_987_37356"/>
<feBlend mode="normal" in="SourceGraphic" in2="effect1_dropShadow_987_37356" result="shape"/>
</filter>
</defs>
</svg>
