<svg width="54" height="62" viewBox="0 0 54 62" fill="none" xmlns="http://www.w3.org/2000/svg">
<g filter="url(#filter0_f_987_37356)">
<path d="M34 55.5C34 56.8807 30.866 58 27 58C23.134 58 20 56.8807 20 55.5C20 54.1193 23.134 53 27 53C30.866 53 34 54.1193 34 55.5Z" fill="black" fill-opacity="0.2"/>
</g>
<g filter="url(#filter1_d_987_37356)">
<path fill-rule="evenodd" clip-rule="evenodd" d="M27 4C39.1503 4 49 13.7781 49 25.84C49 35.0883 43.2095 42.9939 35.0314 46.1789L28.2531 55.3767C28.1117 55.5692 27.9241 55.7264 27.706 55.8349C27.4879 55.9434 27.2458 56 27 56C26.7542 56 26.5121 55.9434 26.294 55.8349C26.0759 55.7264 25.8883 55.5692 25.7469 55.3767L18.9686 46.1789C10.7905 42.9939 5 35.0883 5 25.84C5 13.7781 14.8497 4 27 4Z" fill="#2388FF"/>
</g>
<path d="M45 26C45 16.0589 36.9411 8 27 8C17.0589 8 9 16.0589 9 26C9 35.9411 17.0589 44 27 44C36.9411 44 45 35.9411 45 26Z" fill="white"/>
<path d="M18.6667 18.5H34.615C34.6881 18.4999 34.7598 18.519 34.8232 18.5553C34.8865 18.5917 34.9392 18.6441 34.9759 18.7072C35.0126 18.7703 35.0321 18.842 35.0324 18.9151C35.0327 18.9881 35.0137 19.0599 34.9775 19.1233L32 24.3333L34.9775 29.5433C35.0137 29.6068 35.0327 29.6786 35.0324 29.7516C35.0321 29.8247 35.0126 29.8963 34.9759 29.9595C34.9392 30.0226 34.8865 30.075 34.8232 30.1113C34.7598 30.1477 34.6881 30.1668 34.615 30.1667H20.3334V34.3333H18.6667V18.5Z" fill="#2388FF"/>
<defs>
<filter id="filter0_f_987_37356" x="18" y="51" width="18" height="9" filterUnits="userSpaceOnUse" color-interpolation-filters="sRGB">
<feFlood flood-opacity="0" result="BackgroundImageFix"/>
<feBlend mode="normal" in="SourceGraphic" in2="BackgroundImageFix" result="shape"/>
<feGaussianBlur stdDeviation="1" result="effect1_foregroundBlur_987_37356"/>
</filter>
<filter id="filter1_d_987_37356" x="0" y="0" width="54" height="62" filterUnits="userSpaceOnUse" color-interpolation-filters="sRGB">
<feFlood flood-opacity="0" result="BackgroundImageFix"/>
<feColorMatrix in="SourceAlpha" type="matrix" values="0 0 0 0 0 0 0 0 0 0 0 0 0 0 0 0 0 0 127 0" result="hardAlpha"/>
<feOffset dy="1"/>
<feGaussianBlur stdDeviation="2.5"/>
<feComposite in2="hardAlpha" operator="out"/>
<feColorMatrix type="matrix" values="0 0 0 0 0 0 0 0 0 0 0 0 0 0 0 0 0 0 0.1 0"/>
<feBlend mode="normal" in2="BackgroundImageFix" result="effect1_dropShadow_987_37356"/>
<feBlend mode="normal" in="SourceGraphic" in2="effect1_dropShadow_987_37356" result="shape"/>
</filter>
</defs>
</svg>
