<svg width="28" height="28" viewBox="0 0 28 28" fill="none" xmlns="http://www.w3.org/2000/svg">
<path d="M27 14C27 6.8203 21.1797 1 14 1C6.8203 1 1 6.8203 1 14C1 21.1797 6.8203 27 14 27C21.1797 27 27 21.1797 27 14Z" fill="#2388FF" stroke="white" stroke-width="2"/>
<path d="M7.33325 8H20.0919C20.1503 7.9999 20.2078 8.01516 20.2584 8.04426C20.3091 8.07335 20.3513 8.11525 20.3806 8.16576C20.41 8.21627 20.4256 8.27361 20.4258 8.33204C20.426 8.39047 20.4109 8.44793 20.3819 8.49867L17.9999 12.6667L20.3819 16.8347C20.4109 16.8854 20.426 16.9429 20.4258 17.0013C20.4256 17.0597 20.41 17.1171 20.3806 17.1676C20.3513 17.2181 20.3091 17.26 20.2584 17.2891C20.2078 17.3182 20.1503 17.3334 20.0919 17.3333H8.66659V20.6667H7.33325V8Z" fill="white"/>
</svg>
