<svg width="28" height="28" viewBox="0 0 28 28" fill="none" xmlns="http://www.w3.org/2000/svg">
<path d="M27 14C27 6.8203 21.1797 1 14 1C6.8203 1 1 6.8203 1 14C1 21.1797 6.8203 27 14 27C21.1797 27 27 21.1797 27 14Z" fill="#2388FF" stroke="white" stroke-width="2"/>
<path d="M19.3334 19.3336C19.3334 19.5104 19.2632 19.68 19.1382 19.805C19.0131 19.93 18.8436 20.0003 18.6667 20.0003H9.33341C9.1566 20.0003 8.98703 19.93 8.86201 19.805C8.73699 19.68 8.66675 19.5104 8.66675 19.3336V13.3336H6.66675L13.5514 7.07494C13.6742 6.96326 13.8341 6.90137 14.0001 6.90137C14.166 6.90137 14.326 6.96326 14.4487 7.07494L21.3334 13.3336H19.3334V19.3336Z" fill="white"/>
</svg>
