<svg width="32" height="32" viewBox="0 0 32 32" fill="none" xmlns="http://www.w3.org/2000/svg">
<path d="M32 16C32 7.16344 24.8366 0 16 0C7.16344 0 0 7.16344 0 16C0 24.8366 7.16344 32 16 32C24.8366 32 32 24.8366 32 16Z" fill="#E23774"/>
<g clip-path="url(#clip0_987_37351)">
<path d="M22.6666 22.6668C22.6666 22.8878 22.5789 23.0997 22.4226 23.256C22.2663 23.4123 22.0543 23.5001 21.8333 23.5001H10.1666C9.94563 23.5001 9.73367 23.4123 9.57739 23.256C9.42111 23.0997 9.33331 22.8878 9.33331 22.6668V15.1668H6.83331L15.4391 7.34343C15.5926 7.20383 15.7925 7.12646 16 7.12646C16.2074 7.12646 16.4074 7.20383 16.5608 7.34343L25.1666 15.1668H22.6666V22.6668Z" fill="white"/>
</g>
<defs>
<clipPath id="clip0_987_37351">
<rect width="20" height="20" fill="white" transform="translate(6 6)"/>
</clipPath>
</defs>
</svg>
