<svg width="54" height="62" viewBox="0 0 54 62" fill="none" xmlns="http://www.w3.org/2000/svg">
<g filter="url(#filter0_f_987_37355)">
<ellipse cx="27" cy="55.5" rx="7" ry="2.5" fill="black" fill-opacity="0.2"/>
</g>
<g filter="url(#filter1_d_987_37355)">
<path fill-rule="evenodd" clip-rule="evenodd" d="M27 4C39.1503 4 49 13.7781 49 25.84C49 35.0883 43.2095 42.9939 35.0314 46.1789L28.2531 55.3767C28.1117 55.5692 27.9241 55.7264 27.706 55.8349C27.4879 55.9434 27.2458 56 27 56C26.7542 56 26.5121 55.9434 26.294 55.8349C26.0759 55.7264 25.8883 55.5692 25.7469 55.3767L18.9686 46.1789C10.7905 42.9939 5 35.0883 5 25.84C5 13.7781 14.8497 4 27 4Z" fill="#E23774"/>
</g>
<path d="M45 26C45 16.0589 36.9411 8 27 8C17.0589 8 9 16.0589 9 26C9 35.9411 17.0589 44 27 44C36.9411 44 45 35.9411 45 26Z" fill="white"/>
<g clip-path="url(#clip0_987_37355)">
<path d="M33.6666 32.6668C33.6666 32.8878 33.5789 33.0997 33.4226 33.256C33.2663 33.4123 33.0543 33.5001 32.8333 33.5001H21.1666C20.9456 33.5001 20.7337 33.4123 20.5774 33.256C20.4211 33.0997 20.3333 32.8878 20.3333 32.6668V25.1668H17.8333L26.4391 17.3434C26.5926 17.2038 26.7925 17.1265 27 17.1265C27.2074 17.1265 27.4074 17.2038 27.5608 17.3434L36.1666 25.1668H33.6666V32.6668Z" fill="#E23774"/>
</g>
<defs>
<filter id="filter0_f_987_37355" x="18" y="51" width="18" height="9" filterUnits="userSpaceOnUse" color-interpolation-filters="sRGB">
<feFlood flood-opacity="0" result="BackgroundImageFix"/>
<feBlend mode="normal" in="SourceGraphic" in2="BackgroundImageFix" result="shape"/>
<feGaussianBlur stdDeviation="1" result="effect1_foregroundBlur_987_37355"/>
</filter>
<filter id="filter1_d_987_37355" x="0" y="0" width="54" height="62" filterUnits="userSpaceOnUse" color-interpolation-filters="sRGB">
<feFlood flood-opacity="0" result="BackgroundImageFix"/>
<feColorMatrix in="SourceAlpha" type="matrix" values="0 0 0 0 0 0 0 0 0 0 0 0 0 0 0 0 0 0 127 0" result="hardAlpha"/>
<feOffset dy="1"/>
<feGaussianBlur stdDeviation="2.5"/>
<feComposite in2="hardAlpha" operator="out"/>
<feColorMatrix type="matrix" values="0 0 0 0 0 0 0 0 0 0 0 0 0 0 0 0 0 0 0.1 0"/>
<feBlend mode="normal" in2="BackgroundImageFix" result="effect1_dropShadow_987_37355"/>
<feBlend mode="normal" in="SourceGraphic" in2="effect1_dropShadow_987_37355" result="shape"/>
</filter>
<clipPath id="clip0_987_37355">
<rect width="20" height="20" fill="white" transform="translate(17 16)"/>
</clipPath>
</defs>
</svg>
