<svg width="50" height="58" viewBox="0 0 50 58" fill="none" xmlns="http://www.w3.org/2000/svg">
<g filter="url(#filter0_f_987_37355)">
<ellipse cx="25" cy="51.5387" rx="7" ry="2.30769" fill="black" fill-opacity="0.2"/>
</g>
<g filter="url(#filter1_d_987_37355)">
<path fill-rule="evenodd" clip-rule="evenodd" d="M25 4C36.0457 4 45 13.0259 45 24.16C45 32.6969 39.7359 39.9944 32.3013 42.9344L26.1391 51.4246C26.0107 51.6024 25.8401 51.7474 25.6418 51.8476C25.4436 51.9477 25.2234 52 25 52C24.7766 52 24.5564 51.9477 24.3582 51.8476C24.1599 51.7474 23.9893 51.6024 23.8609 51.4246L17.6987 42.9344C10.2641 39.9944 5 32.6969 5 24.16C5 13.0259 13.9543 4 25 4Z" fill="#2388FF"/>
</g>
<path d="M41 24C41 15.1634 33.8366 8 25 8C16.1634 8 9 15.1634 9 24C9 32.8366 16.1634 40 25 40C33.8366 40 41 32.8366 41 24Z" fill="white"/>
<path d="M31.6667 30.6668C31.6667 30.8878 31.5789 31.0997 31.4226 31.256C31.2664 31.4123 31.0544 31.5001 30.8334 31.5001H19.1667C18.9457 31.5001 18.7337 31.4123 18.5775 31.256C18.4212 31.0997 18.3334 30.8878 18.3334 30.6668V23.1668H15.8334L24.4392 15.3434C24.5926 15.2038 24.7926 15.1265 25 15.1265C25.2075 15.1265 25.4074 15.2038 25.5609 15.3434L34.1667 23.1668H31.6667V30.6668Z" fill="#2388FF"/>
<defs>
<filter id="filter0_f_987_37355" x="16" y="47.231" width="18" height="8.61523" filterUnits="userSpaceOnUse" color-interpolation-filters="sRGB">
<feFlood flood-opacity="0" result="BackgroundImageFix"/>
<feBlend mode="normal" in="SourceGraphic" in2="BackgroundImageFix" result="shape"/>
<feGaussianBlur stdDeviation="1" result="effect1_foregroundBlur_987_37355"/>
</filter>
<filter id="filter1_d_987_37355" x="0" y="0" width="50" height="58" filterUnits="userSpaceOnUse" color-interpolation-filters="sRGB">
<feFlood flood-opacity="0" result="BackgroundImageFix"/>
<feColorMatrix in="SourceAlpha" type="matrix" values="0 0 0 0 0 0 0 0 0 0 0 0 0 0 0 0 0 0 127 0" result="hardAlpha"/>
<feOffset dy="1"/>
<feGaussianBlur stdDeviation="2.5"/>
<feComposite in2="hardAlpha" operator="out"/>
<feColorMatrix type="matrix" values="0 0 0 0 0 0 0 0 0 0 0 0 0 0 0 0 0 0 0.1 0"/>
<feBlend mode="normal" in2="BackgroundImageFix" result="effect1_dropShadow_987_37355"/>
<feBlend mode="normal" in="SourceGraphic" in2="effect1_dropShadow_987_37355" result="shape"/>
</filter>
</defs>
</svg>
