<svg width="54" height="62" viewBox="0 0 54 62" fill="none" xmlns="http://www.w3.org/2000/svg">
<g filter="url(#filter0_f_987_37353)">
<ellipse cx="27" cy="55.5" rx="7" ry="2.5" fill="black" fill-opacity="0.2"/>
</g>
<g filter="url(#filter1_d_987_37353)">
<path fill-rule="evenodd" clip-rule="evenodd" d="M27 4C39.1503 4 49 13.7781 49 25.84C49 35.0883 43.2095 42.9939 35.0314 46.1789L28.2531 55.3767C28.1117 55.5692 27.9241 55.7264 27.706 55.8349C27.4879 55.9434 27.2458 56 27 56C26.7542 56 26.5121 55.9434 26.294 55.8349C26.0759 55.7264 25.8883 55.5692 25.7469 55.3767L18.9686 46.1789C10.7905 42.9939 5 35.0883 5 25.84C5 13.7781 14.8497 4 27 4Z" fill="#19C43E"/>
</g>
<path d="M45 26C45 16.0589 36.9411 8 27 8C17.0589 8 9 16.0589 9 26C9 35.9411 17.0589 44 27 44C36.9411 44 45 35.9411 45 26Z" fill="white"/>
<path d="M23.1113 18C21.3928 18 20 19.567 20 21.5C20 23.155 21.0216 24.542 22.3937 24.906L21.8782 33.002C21.843 33.551 22.2817 34 22.8521 34H23.3706C23.941 34 24.3787 33.551 24.3445 33.002L23.829 24.906C25.2011 24.541 26.2227 23.155 26.2227 21.5C26.2227 19.567 24.8298 18 23.1113 18V18ZM33.5686 18L32.7046 23H32.0564L31.624 18H31.1915L30.759 23H30.1108L29.2469 18H28.8144V24.5C28.8144 24.776 29.0467 25 29.333 25H30.6833L30.1741 33.002C30.1388 33.551 30.5775 34 31.1479 34H31.6665C32.2369 34 32.6746 33.551 32.6403 33.002L32.1311 25H33.4814C33.7677 25 34 24.776 34 24.5V18H33.5675H33.5686Z" fill="#19C43E"/>
<defs>
<filter id="filter0_f_987_37353" x="18" y="51" width="18" height="9" filterUnits="userSpaceOnUse" color-interpolation-filters="sRGB">
<feFlood flood-opacity="0" result="BackgroundImageFix"/>
<feBlend mode="normal" in="SourceGraphic" in2="BackgroundImageFix" result="shape"/>
<feGaussianBlur stdDeviation="1" result="effect1_foregroundBlur_987_37353"/>
</filter>
<filter id="filter1_d_987_37353" x="0" y="0" width="54" height="62" filterUnits="userSpaceOnUse" color-interpolation-filters="sRGB">
<feFlood flood-opacity="0" result="BackgroundImageFix"/>
<feColorMatrix in="SourceAlpha" type="matrix" values="0 0 0 0 0 0 0 0 0 0 0 0 0 0 0 0 0 0 127 0" result="hardAlpha"/>
<feOffset dy="1"/>
<feGaussianBlur stdDeviation="2.5"/>
<feComposite in2="hardAlpha" operator="out"/>
<feColorMatrix type="matrix" values="0 0 0 0 0 0 0 0 0 0 0 0 0 0 0 0 0 0 0.1 0"/>
<feBlend mode="normal" in2="BackgroundImageFix" result="effect1_dropShadow_987_37353"/>
<feBlend mode="normal" in="SourceGraphic" in2="effect1_dropShadow_987_37353" result="shape"/>
</filter>
</defs>
</svg>
