<svg width="32" height="32" viewBox="0 0 32 32" fill="none" xmlns="http://www.w3.org/2000/svg">
<path d="M32 16C32 7.16344 24.8366 0 16 0C7.16344 0 0 7.16344 0 16C0 24.8366 7.16344 32 16 32C24.8366 32 32 24.8366 32 16Z" fill="#19C43E"/>
<path d="M12.3401 8.4707C10.7227 8.4707 9.41174 9.94553 9.41174 11.7648C9.41174 13.3225 10.3732 14.6279 11.6646 14.9705L11.1795 22.5902C11.1463 23.1069 11.5592 23.5295 12.096 23.5295H12.5841C13.121 23.5295 13.5329 23.1069 13.5007 22.5902L13.0155 14.9705C14.3069 14.6269 15.2684 13.3225 15.2684 11.7648C15.2684 9.94553 13.9575 8.4707 12.3401 8.4707V8.4707ZM22.1822 8.4707L21.3691 13.1766H20.759L20.352 8.4707H19.9449L19.5379 13.1766H18.9278L18.1147 8.4707H17.7077V14.5884C17.7077 14.8481 17.9263 15.0589 18.1957 15.0589H19.4666L18.9874 22.5902C18.9542 23.1069 19.3671 23.5295 19.9039 23.5295H20.392C20.9288 23.5295 21.3407 23.1069 21.3085 22.5902L20.8293 15.0589H22.1002C22.3696 15.0589 22.5882 14.8481 22.5882 14.5884V8.4707H22.1812H22.1822Z" fill="white"/>
</svg>
