<svg width="28" height="28" viewBox="0 0 28 28" fill="none" xmlns="http://www.w3.org/2000/svg">
<path d="M27 14C27 6.8203 21.1797 1 14 1C6.8203 1 1 6.8203 1 14C1 21.1797 6.8203 27 14 27C21.1797 27 27 21.1797 27 14Z" fill="#2388FF" stroke="white" stroke-width="2"/>
<path d="M10.3401 6.4707C8.72266 6.4707 7.41174 7.94553 7.41174 9.76482C7.41174 11.3225 8.37321 12.6279 9.6646 12.9705L9.17947 20.5902C9.14629 21.1069 9.55918 21.5295 10.096 21.5295H10.5841C11.121 21.5295 11.5329 21.1069 11.5007 20.5902L11.0155 12.9705C12.3069 12.6269 13.2684 11.3225 13.2684 9.76482C13.2684 7.94553 11.9575 6.4707 10.3401 6.4707V6.4707ZM20.1822 6.4707L19.3691 11.1766H18.759L18.352 6.4707H17.9449L17.5379 11.1766H16.9278L16.1147 6.4707H15.7077V12.5884C15.7077 12.8481 15.9263 13.0589 16.1957 13.0589H17.4666L16.9874 20.5902C16.9542 21.1069 17.3671 21.5295 17.9039 21.5295H18.392C18.9288 21.5295 19.3407 21.1069 19.3085 20.5902L18.8293 13.0589H20.1002C20.3696 13.0589 20.5882 12.8481 20.5882 12.5884V6.4707H20.1812H20.1822Z" fill="white"/>
</svg>
