<svg width="50" height="58" viewBox="0 0 50 58" fill="none" xmlns="http://www.w3.org/2000/svg">
<g filter="url(#filter0_f_987_37353)">
<ellipse cx="25" cy="51.5387" rx="7" ry="2.30769" fill="black" fill-opacity="0.2"/>
</g>
<g filter="url(#filter1_d_987_37353)">
<path fill-rule="evenodd" clip-rule="evenodd" d="M25 4C36.0457 4 45 13.0259 45 24.16C45 32.6969 39.7359 39.9944 32.3013 42.9344L26.1391 51.4246C26.0107 51.6024 25.8401 51.7474 25.6418 51.8476C25.4436 51.9477 25.2234 52 25 52C24.7766 52 24.5564 51.9477 24.3582 51.8476C24.1599 51.7474 23.9893 51.6024 23.8609 51.4246L17.6987 42.9344C10.2641 39.9944 5 32.6969 5 24.16C5 13.0259 13.9543 4 25 4Z" fill="#2388FF"/>
</g>
<path d="M41 24C41 15.1634 33.8366 8 25 8C16.1634 8 9 15.1634 9 24C9 32.8366 16.1634 40 25 40C33.8366 40 41 32.8366 41 24Z" fill="white"/>
<path d="M21.1113 16C19.3928 16 18 17.567 18 19.5C18 21.155 19.0216 22.542 20.3937 22.906L19.8782 31.002C19.843 31.551 20.2817 32 20.8521 32H21.3706C21.941 32 22.3787 31.551 22.3445 31.002L21.829 22.906C23.2011 22.541 24.2227 21.155 24.2227 19.5C24.2227 17.567 22.8298 16 21.1113 16V16ZM31.5686 16L30.7046 21H30.0564L29.624 16H29.1915L28.759 21H28.1108L27.2469 16H26.8144V22.5C26.8144 22.776 27.0467 23 27.333 23H28.6833L28.1741 31.002C28.1388 31.551 28.5775 32 29.1479 32H29.6665C30.2369 32 30.6746 31.551 30.6403 31.002L30.1311 23H31.4814C31.7677 23 32 22.776 32 22.5V16H31.5675H31.5686Z" fill="#2388FF"/>
<defs>
<filter id="filter0_f_987_37353" x="16" y="47.231" width="18" height="8.61523" filterUnits="userSpaceOnUse" color-interpolation-filters="sRGB">
<feFlood flood-opacity="0" result="BackgroundImageFix"/>
<feBlend mode="normal" in="SourceGraphic" in2="BackgroundImageFix" result="shape"/>
<feGaussianBlur stdDeviation="1" result="effect1_foregroundBlur_987_37353"/>
</filter>
<filter id="filter1_d_987_37353" x="0" y="0" width="50" height="58" filterUnits="userSpaceOnUse" color-interpolation-filters="sRGB">
<feFlood flood-opacity="0" result="BackgroundImageFix"/>
<feColorMatrix in="SourceAlpha" type="matrix" values="0 0 0 0 0 0 0 0 0 0 0 0 0 0 0 0 0 0 127 0" result="hardAlpha"/>
<feOffset dy="1"/>
<feGaussianBlur stdDeviation="2.5"/>
<feComposite in2="hardAlpha" operator="out"/>
<feColorMatrix type="matrix" values="0 0 0 0 0 0 0 0 0 0 0 0 0 0 0 0 0 0 0.1 0"/>
<feBlend mode="normal" in2="BackgroundImageFix" result="effect1_dropShadow_987_37353"/>
<feBlend mode="normal" in="SourceGraphic" in2="effect1_dropShadow_987_37353" result="shape"/>
</filter>
</defs>
</svg>
