<svg
            xmlns="http://www.w3.org/2000/svg"
            width="24"
            height="24"
            viewBox="0 0 24 24"
            fill="none"
          >
            <path
              d="M15.8125 5.14237V3.30659C15.8125 3.14747 15.6507 3.0596 15.5415 3.15697L6.07093 11.5189C5.99047 11.5897 5.92536 11.6802 5.88057 11.7838C5.83578 11.8873 5.8125 12.001 5.8125 12.1162C5.8125 12.2314 5.83578 12.3452 5.88057 12.4487C5.92536 12.5522 5.99047 12.6428 6.07093 12.7135L15.5415 21.0755C15.6528 21.1728 15.8125 21.085 15.8125 20.9258V19.0901C15.8125 18.9737 15.7642 18.8621 15.6844 18.7908L8.12135 12.1174L15.6844 5.4416C15.7642 5.37036 15.8125 5.25874 15.8125 5.14237Z"
              fill="#23272F"
            />
          </svg>