<svg width="16" height="16" viewBox="0 0 16 16" fill="none" xmlns="http://www.w3.org/2000/svg">
<path id="Vector" d="M1.60384e-09 5.91476e-07L15.592 5.91529e-07C15.6634 -0.000123275 15.7335 0.0191553 15.7955 0.0559038C15.8574 0.0926523 15.9089 0.14558 15.9448 0.209381C15.9807 0.273182 15.9997 0.345615 16 0.41942C16.0003 0.493225 15.9818 0.565808 15.9464 0.629895L13.0354 5.89474L15.9464 11.1596C15.9818 11.2237 16.0003 11.2963 16 11.3701C15.9997 11.4439 15.9807 11.5163 15.9448 11.5801C15.9089 11.6439 15.8574 11.6968 15.7955 11.7336C15.7335 11.7703 15.6634 11.7896 15.592 11.7895L1.62942 11.7895L1.62942 16L1.65781e-09 16L1.60384e-09 5.91476e-07Z" fill="#CDCFD0"/>
</svg>
