<svg width="51" height="51" viewBox="0 0 51 51" fill="none" xmlns="http://www.w3.org/2000/svg">
<path id="ic_search" d="M50.8468 47.3342L34.291 30.7784C36.8601 27.457 38.2498 23.3961 38.2498 19.1249C38.2498 14.0122 36.2545 9.21821 32.6462 5.6036C29.038 1.98899 24.2313 0 19.1249 0C14.0186 0 9.21183 1.99537 5.6036 5.6036C1.98899 9.21183 0 14.0122 0 19.1249C0 24.2313 1.99537 29.038 5.6036 32.6462C9.21183 36.2608 14.0122 38.2498 19.1249 38.2498C23.3961 38.2498 27.4506 36.8601 30.772 34.2974L47.3278 50.8468C47.3763 50.8954 47.434 50.9339 47.4974 50.9602C47.5609 50.9865 47.6289 51 47.6975 51C47.7662 51 47.8342 50.9865 47.8977 50.9602C47.9611 50.9339 48.0187 50.8954 48.0673 50.8468L50.8468 48.0737C50.8954 48.0251 50.9339 47.9675 50.9602 47.904C50.9865 47.8406 51 47.7726 51 47.7039C51 47.6352 50.9865 47.5672 50.9602 47.5038C50.9339 47.4404 50.8954 47.3827 50.8468 47.3342ZM29.2229 29.2229C26.5199 31.9195 22.9372 33.4049 19.1249 33.4049C15.3127 33.4049 11.7299 31.9195 9.02696 29.2229C6.33035 26.5199 4.84498 22.9372 4.84498 19.1249C4.84498 15.3127 6.33035 11.7236 9.02696 9.02696C11.7299 6.33035 15.3127 4.84498 19.1249 4.84498C22.9372 4.84498 26.5263 6.32397 29.2229 9.02696C31.9195 11.7299 33.4049 15.3127 33.4049 19.1249C33.4049 22.9372 31.9195 26.5263 29.2229 29.2229Z" fill="#CDCFD0"/>
</svg>
