<svg width="32" height="32" viewBox="0 0 32 32" fill="none" xmlns="http://www.w3.org/2000/svg">
<path d="M32 16C32 7.16344 24.8366 0 16 0C7.16344 0 0 7.16344 0 16C0 24.8366 7.16344 32 16 32C24.8366 32 32 24.8366 32 16Z" fill="#E23774"/>
<path d="M17.7773 21H15.665V15.2168C15.665 15.0573 15.6673 14.8613 15.6719 14.6289C15.6764 14.3919 15.6833 14.1504 15.6924 13.9043C15.7015 13.6536 15.7106 13.4281 15.7197 13.2275C15.6696 13.2868 15.5671 13.3893 15.4121 13.5352C15.2617 13.6764 15.1204 13.804 14.9883 13.918L13.8398 14.8408L12.8213 13.5693L16.041 11.0059H17.7773V21Z" fill="white"/>
</svg>
