<svg width="32" height="32" viewBox="0 0 32 32" fill="none" xmlns="http://www.w3.org/2000/svg">
<path d="M32 16C32 7.16344 24.8366 0 16 0C7.16344 0 0 7.16344 0 16C0 24.8366 7.16344 32 16 32C24.8366 32 32 24.8366 32 16Z" fill="#E23774"/>
<path d="M19.541 21H12.5547V19.5303L15.0635 16.9941C15.5693 16.4746 15.9749 16.0417 16.2803 15.6953C16.5902 15.3444 16.8135 15.0254 16.9502 14.7383C17.0915 14.4512 17.1621 14.1436 17.1621 13.8154C17.1621 13.4189 17.0505 13.1227 16.8271 12.9268C16.6084 12.7262 16.3145 12.626 15.9453 12.626C15.5579 12.626 15.182 12.7148 14.8174 12.8926C14.4528 13.0703 14.0723 13.3232 13.6758 13.6514L12.5273 12.291C12.8145 12.0449 13.1175 11.8125 13.4365 11.5938C13.7601 11.375 14.1338 11.1995 14.5576 11.0674C14.986 10.9307 15.4987 10.8623 16.0957 10.8623C16.752 10.8623 17.3148 10.9808 17.7842 11.2178C18.2581 11.4548 18.6227 11.7783 18.8779 12.1885C19.1331 12.5941 19.2607 13.0544 19.2607 13.5693C19.2607 14.1208 19.1514 14.6243 18.9326 15.0801C18.7139 15.5358 18.3949 15.987 17.9756 16.4336C17.5609 16.8802 17.0596 17.3747 16.4717 17.917L15.1865 19.127V19.2227H19.541V21Z" fill="white"/>
</svg>
