<svg width="32" height="32" viewBox="0 0 32 32" fill="none" xmlns="http://www.w3.org/2000/svg">
<path d="M32 16C32 7.16344 24.8366 0 16 0C7.16344 0 0 7.16344 0 16C0 24.8366 7.16344 32 16 32C24.8366 32 32 24.8366 32 16Z" fill="#E23774"/>
<path d="M19.1514 13.2412C19.1514 13.7015 19.0557 14.1003 18.8643 14.4375C18.6729 14.7747 18.4131 15.0505 18.085 15.2646C17.7614 15.4788 17.3968 15.6361 16.9912 15.7363V15.7773C17.7933 15.8776 18.4017 16.1237 18.8164 16.5156C19.2357 16.9076 19.4453 17.4316 19.4453 18.0879C19.4453 18.6712 19.3018 19.193 19.0146 19.6533C18.7321 20.1136 18.2946 20.4759 17.7021 20.7402C17.1097 21.0046 16.3464 21.1367 15.4121 21.1367C14.8607 21.1367 14.3457 21.0911 13.8672 21C13.3932 20.9134 12.9466 20.779 12.5273 20.5967V18.7988C12.9557 19.0176 13.4046 19.1839 13.874 19.2979C14.3434 19.4072 14.7809 19.4619 15.1865 19.4619C15.943 19.4619 16.4717 19.332 16.7725 19.0723C17.0778 18.8079 17.2305 18.4388 17.2305 17.9648C17.2305 17.6868 17.1598 17.4521 17.0186 17.2607C16.8773 17.0693 16.6312 16.9235 16.2803 16.8232C15.9339 16.723 15.4486 16.6729 14.8242 16.6729H14.0654V15.0527H14.8379C15.4531 15.0527 15.9202 14.9958 16.2393 14.8818C16.5628 14.7633 16.7816 14.6038 16.8955 14.4033C17.014 14.1982 17.0732 13.9658 17.0732 13.7061C17.0732 13.3506 16.9639 13.0726 16.7451 12.8721C16.5264 12.6715 16.1618 12.5713 15.6514 12.5713C15.3324 12.5713 15.0407 12.6123 14.7764 12.6943C14.5166 12.7718 14.2819 12.8675 14.0723 12.9814C13.8626 13.0908 13.6781 13.1979 13.5186 13.3027L12.541 11.8467C12.9329 11.5641 13.391 11.3294 13.915 11.1426C14.4437 10.9557 15.0726 10.8623 15.8018 10.8623C16.8317 10.8623 17.6475 11.0697 18.249 11.4844C18.8506 11.8991 19.1514 12.4847 19.1514 13.2412Z" fill="white"/>
</svg>
