<svg width="72" height="72" viewBox="0 0 72 72" fill="none" xmlns="http://www.w3.org/2000/svg">
<rect width="72" height="72" rx="36" fill="#2388FF"/>
<path d="M24.7564 38.6144C25.1039 38.4022 25.5169 38.3447 25.9044 38.4546C26.292 38.5644 26.6224 38.8325 26.8231 39.2C27.7524 40.9035 29.0896 42.318 30.7002 43.3011C32.3108 44.2842 34.1379 44.8012 35.9975 44.8C37.8571 44.8012 39.6842 44.2842 41.2947 43.3011C42.9053 42.318 44.2426 40.9035 45.1719 39.2C45.2705 39.0166 45.4024 38.8556 45.5601 38.7263C45.7178 38.597 45.8981 38.502 46.0907 38.4467C46.2832 38.3914 46.4842 38.377 46.6821 38.4042C46.8799 38.4314 47.0708 38.4997 47.2436 38.6052C47.4163 38.7107 47.5677 38.8513 47.6889 39.0189C47.8101 39.1865 47.8987 39.3778 47.9497 39.5818C48.0007 39.7858 48.0131 39.9985 47.9861 40.2076C47.959 40.4166 47.8932 40.618 47.7922 40.8C46.5974 42.9899 44.8782 44.8084 42.8076 46.0723C40.7371 47.3363 38.3882 48.0011 35.9975 48C33.6067 48.0011 31.2579 47.3363 29.1873 46.0723C27.1167 44.8084 25.3975 42.9899 24.2027 40.8C24.0021 40.4325 23.9477 39.9958 24.0516 39.5859C24.1554 39.176 24.4089 38.8266 24.7564 38.6144ZM32.9716 28.8C32.9716 31.4496 31.616 33.6 29.9458 33.6C28.2755 33.6 26.9199 31.4496 26.9199 28.8C26.9199 26.1504 28.2755 24 29.9458 24C31.616 24 32.9716 26.1504 32.9716 28.8ZM45.075 28.8C45.075 31.4496 43.7194 33.6 42.0492 33.6C40.3789 33.6 39.0233 31.4496 39.0233 28.8C39.0233 26.1504 40.3789 24 42.0492 24C43.7194 24 45.075 26.1504 45.075 28.8Z" fill="white"/>
</svg>
