<svg width="8" height="8" viewBox="0 0 8 8" fill="none" xmlns="http://www.w3.org/2000/svg">
<path d="M0.285142 4.567C0.399982 4.5007 0.536455 4.48273 0.664541 4.51705C0.792628 4.55137 0.901836 4.63516 0.968142 4.75C1.27525 5.28234 1.71719 5.72437 2.24947 6.03158C2.78175 6.3388 3.38557 6.50036 4.00014 6.5C4.61472 6.50036 5.21854 6.3388 5.75081 6.03158C6.28309 5.72437 6.72503 5.28234 7.03214 4.75C7.06473 4.69268 7.10834 4.64237 7.16045 4.60197C7.21257 4.56156 7.27216 4.53187 7.3358 4.51459C7.39943 4.49732 7.46586 4.4928 7.53125 4.5013C7.59664 4.5098 7.6597 4.53115 7.71681 4.56412C7.77391 4.59709 7.82393 4.64103 7.86399 4.69341C7.90404 4.74579 7.93334 4.80558 7.95019 4.86933C7.96705 4.93308 7.97112 4.99953 7.96219 5.06486C7.95326 5.13019 7.93149 5.19311 7.89814 5.25C7.50326 5.93435 6.93509 6.50262 6.2508 6.8976C5.56651 7.29259 4.79025 7.50036 4.00014 7.5C3.21004 7.50036 2.43378 7.29259 1.74949 6.8976C1.06519 6.50262 0.49702 5.93435 0.102143 5.25C0.0358414 5.13516 0.017874 4.99869 0.0521929 4.8706C0.0865119 4.74251 0.170306 4.63331 0.285142 4.567ZM3.00014 1.5C3.00014 2.328 2.55214 3 2.00014 3C1.44814 3 1.00014 2.328 1.00014 1.5C1.00014 0.672 1.44814 2.92807e-10 2.00014 4.07196e-10C2.55214 5.21585e-10 3.00014 0.672 3.00014 1.5ZM7.00014 1.5C7.00014 2.328 6.55214 3 6.00014 3C5.44814 3 5.00014 2.328 5.00014 1.5C5.00014 0.672 5.44814 1.12171e-09 6.00014 1.2361e-09C6.55214 1.35049e-09 7.00014 0.672 7.00014 1.5Z" fill="white"/>
</svg>
