<svg width="20" height="20" viewBox="0 0 20 20" fill="none" xmlns="http://www.w3.org/2000/svg">
<path d="M4.16667 18.3346H15.8333C16.7525 18.3346 17.5 17.5871 17.5 16.668V4.16797C17.5 3.2488 16.7525 2.5013 15.8333 2.5013H14.1667C14.1667 2.28029 14.0789 2.06833 13.9226 1.91205C13.7663 1.75577 13.5543 1.66797 13.3333 1.66797H6.66667C6.44565 1.66797 6.23369 1.75577 6.07741 1.91205C5.92113 2.06833 5.83333 2.28029 5.83333 2.5013H4.16667C3.2475 2.5013 2.5 3.2488 2.5 4.16797V16.668C2.5 17.5871 3.2475 18.3346 4.16667 18.3346ZM4.16667 4.16797H5.83333V5.83464H14.1667V4.16797H15.8333V16.668H4.16667V4.16797Z" fill="white"/>
<path d="M9.16664 11.321L7.67247 9.82682L6.49414 11.0052L9.16664 13.6777L13.5058 9.33849L12.3275 8.16016L9.16664 11.321Z" fill="white"/>
</svg>
