<svg width="21" height="20" viewBox="0 0 21 20" fill="none" xmlns="http://www.w3.org/2000/svg">
<path d="M4.66667 18.3334H16.3333C17.2525 18.3334 18 17.5859 18 16.6667V4.16669C18 3.24752 17.2525 2.50002 16.3333 2.50002H14.6667C14.6667 2.27901 14.5789 2.06704 14.4226 1.91076C14.2663 1.75448 14.0543 1.66669 13.8333 1.66669H7.16667C6.94565 1.66669 6.73369 1.75448 6.57741 1.91076C6.42113 2.06704 6.33333 2.27901 6.33333 2.50002H4.66667C3.7475 2.50002 3 3.24752 3 4.16669V16.6667C3 17.5859 3.7475 18.3334 4.66667 18.3334ZM4.66667 4.16669H6.33333V5.83335H14.6667V4.16669H16.3333V16.6667H4.66667V4.16669Z" fill="white"/>
<path d="M9.66664 11.3217L8.17247 9.82749L6.99414 11.0058L9.66664 13.6783L14.0058 9.33916L12.8275 8.16083L9.66664 11.3217Z" fill="white"/>
</svg>
