<svg width="54" height="62" viewBox="0 0 54 62" fill="none" xmlns="http://www.w3.org/2000/svg">
<g filter="url(#filter0_f_946_28708)">
<ellipse cx="27" cy="56.5" rx="7" ry="2.5" fill="black" fill-opacity="0.2"/>
</g>
<g filter="url(#filter1_d_946_28708)">
<path fill-rule="evenodd" clip-rule="evenodd" d="M27 4C39.1503 4 49 13.7781 49 25.84C49 35.0883 43.2095 42.9939 35.0314 46.1789L28.2531 55.3767C28.1117 55.5692 27.9241 55.7264 27.706 55.8349C27.4879 55.9434 27.2458 56 27 56C26.7542 56 26.5121 55.9434 26.294 55.8349C26.0759 55.7264 25.8883 55.5692 25.7469 55.3767L18.9686 46.1789C10.7905 42.9939 5 35.0883 5 25.84C5 13.7781 14.8497 4 27 4Z" fill="white"/>
</g>
<path d="M45 26C45 16.0589 36.9411 8 27 8C17.0589 8 9 16.0589 9 26C9 35.9411 17.0589 44 27 44C36.9411 44 45 35.9411 45 26Z" fill="#E23774"/>
<defs>
<filter id="filter0_f_946_28708" x="18" y="52" width="18" height="9" filterUnits="userSpaceOnUse" color-interpolation-filters="sRGB">
<feFlood flood-opacity="0" result="BackgroundImageFix"/>
<feBlend mode="normal" in="SourceGraphic" in2="BackgroundImageFix" result="shape"/>
<feGaussianBlur stdDeviation="1" result="effect1_foregroundBlur_946_28708"/>
</filter>
<filter id="filter1_d_946_28708" x="0" y="0" width="54" height="62" filterUnits="userSpaceOnUse" color-interpolation-filters="sRGB">
<feFlood flood-opacity="0" result="BackgroundImageFix"/>
<feColorMatrix in="SourceAlpha" type="matrix" values="0 0 0 0 0 0 0 0 0 0 0 0 0 0 0 0 0 0 127 0" result="hardAlpha"/>
<feOffset dy="1"/>
<feGaussianBlur stdDeviation="2.5"/>
<feComposite in2="hardAlpha" operator="out"/>
<feColorMatrix type="matrix" values="0 0 0 0 0 0 0 0 0 0 0 0 0 0 0 0 0 0 0.1 0"/>
<feBlend mode="normal" in2="BackgroundImageFix" result="effect1_dropShadow_946_28708"/>
<feBlend mode="normal" in="SourceGraphic" in2="effect1_dropShadow_946_28708" result="shape"/>
</filter>
</defs>
</svg>
