<svg width="24" height="30" viewBox="0 0 24 30" fill="none" xmlns="http://www.w3.org/2000/svg">
<path d="M-3.10839e-10 3C-1.39167e-10 1.34315 1.34315 1.39167e-10 3 3.10839e-10L21 2.17587e-09C22.6569 2.34754e-09 24 1.34315 24 3L24 22L12 30L-2.27949e-09 22L-3.10839e-10 3Z" fill="#2388FF"/>
<path d="M20.0707 8.08789L20.0707 18.9359L18.8347 18.9359L18.8347 8.08789L20.0707 8.08789ZM14.6347 13.1039C13.0147 13.1039 11.8387 12.1679 11.8387 10.8239C11.8387 9.49189 13.0147 8.55589 14.6347 8.55589C16.2547 8.55589 17.4307 9.49189 17.4307 10.8239C17.4307 12.1679 16.2547 13.1039 14.6347 13.1039ZM14.6347 9.57589C13.6747 9.57589 13.0267 10.0559 13.0267 10.8239C13.0267 11.5919 13.6747 12.0839 14.6347 12.0839C15.5947 12.0839 16.2427 11.5919 16.2427 10.8239C16.2427 10.0559 15.5947 9.57589 14.6347 9.57589ZM18.2107 14.4239C17.2507 14.6159 16.2667 14.7119 15.3067 14.7959L15.3067 18.5999L14.0707 18.5999L14.0707 14.8679C13.0507 14.9039 12.1147 14.9159 11.2507 14.9159L11.1067 13.8959C13.0507 13.8959 15.7987 13.8599 18.1267 13.5119L18.2107 14.4239Z" fill="white"/>
<path d="M10.0303 18.0001L4.03027 18.0001L4.03027 17.2321L7.01827 14.2321C7.42627 13.8241 7.81027 13.4161 8.12227 12.9241C8.72227 11.8441 8.79427 10.1641 7.09027 10.1641C6.14227 10.1641 5.43427 10.8601 5.50627 11.8081L4.18627 11.5681C4.41427 9.98413 5.51827 9.03613 7.16227 9.03613C8.65027 9.03613 9.87427 9.92413 9.87427 11.5321C9.87427 12.8761 8.95027 13.8241 8.06227 14.7121L5.80627 16.9921C6.17827 16.8961 6.57427 16.8241 6.95827 16.8241L10.0303 16.8241L10.0303 18.0001Z" fill="white"/>
</svg>
