<svg width="24" height="30" viewBox="0 0 24 30" fill="none" xmlns="http://www.w3.org/2000/svg">
<path d="M-3.10839e-10 3C-1.39167e-10 1.34315 1.34315 1.39167e-10 3 3.10839e-10L21 2.17587e-09C22.6569 2.34754e-09 24 1.34315 24 3L24 22L12 30L-2.27949e-09 22L-3.10839e-10 3Z" fill="#979C9E"/>
<path d="M20.0707 8.08789L20.0707 18.9359L18.8347 18.9359L18.8347 8.08789L20.0707 8.08789ZM14.6347 13.1039C13.0147 13.1039 11.8387 12.1679 11.8387 10.8239C11.8387 9.49189 13.0147 8.55589 14.6347 8.55589C16.2547 8.55589 17.4307 9.49189 17.4307 10.8239C17.4307 12.1679 16.2547 13.1039 14.6347 13.1039ZM14.6347 9.57589C13.6747 9.57589 13.0267 10.0559 13.0267 10.8239C13.0267 11.5919 13.6747 12.0839 14.6347 12.0839C15.5947 12.0839 16.2427 11.5919 16.2427 10.8239C16.2427 10.0559 15.5947 9.57589 14.6347 9.57589ZM18.2107 14.4239C17.2507 14.6159 16.2667 14.7119 15.3067 14.7959L15.3067 18.5999L14.0707 18.5999L14.0707 14.8679C13.0507 14.9039 12.1147 14.9159 11.2507 14.9159L11.1067 13.8959C13.0507 13.8959 15.7987 13.8599 18.1267 13.5119L18.2107 14.4239Z" fill="white"/>
<path d="M5.18225 15.2881C5.29025 16.2001 6.14225 16.9801 7.05425 16.9801C7.95425 16.9801 8.74625 16.3801 8.74625 15.4561C8.74625 14.1001 7.67825 13.9441 6.59825 13.9441L6.59825 12.9841C7.59425 12.9841 8.59025 12.7201 8.59025 11.5441C8.59025 10.6921 8.05025 10.1641 7.17425 10.1641C6.26225 10.1641 5.51825 10.8601 5.59025 11.8081L4.28225 11.5801C4.51025 10.0081 5.60225 9.03613 7.24625 9.03613C8.59025 9.03613 9.87425 9.81613 9.87425 11.3161C9.87425 12.3361 9.43025 13.0081 8.41025 13.3321C9.46625 13.6321 10.0662 14.3041 10.0662 15.4201C10.0662 17.1121 8.71025 18.1081 7.06625 18.1081C5.44625 18.1081 4.49825 17.3761 4.01825 15.7681L5.18225 15.2881Z" fill="white"/>
</svg>
