<svg width="65" height="64" viewBox="0 0 65 64" fill="none" xmlns="http://www.w3.org/2000/svg">
<g filter="url(#filter0_dd_192_23445)">
<circle cx="32.5" cy="32" r="24" fill="white"/>
<path d="M42.1328 26.6469C41.8187 25.9195 41.3657 25.2603 40.7992 24.7063C40.2323 24.1506 39.564 23.709 38.8305 23.4055C38.0699 23.0895 37.2541 22.9278 36.4305 22.9297C35.275 22.9297 34.1477 23.2461 33.168 23.8438C32.9336 23.9867 32.7109 24.1438 32.5 24.3149C32.2891 24.1438 32.0664 23.9867 31.832 23.8438C30.8523 23.2461 29.725 22.9297 28.5695 22.9297C27.7375 22.9297 26.9312 23.0891 26.1695 23.4055C25.4336 23.7102 24.7703 24.1485 24.2008 24.7063C23.6336 25.2597 23.1805 25.919 22.8672 26.6469C22.5414 27.4039 22.375 28.2078 22.375 29.0352C22.375 29.8156 22.5344 30.6289 22.8508 31.4563C23.1156 32.1477 23.4953 32.8649 23.9805 33.5891C24.7492 34.7352 25.8062 35.9305 27.1187 37.1422C29.2937 39.1508 31.4477 40.5383 31.5391 40.5945L32.0945 40.9508C32.3406 41.1078 32.657 41.1078 32.9031 40.9508L33.4586 40.5945C33.55 40.536 35.7016 39.1508 37.8789 37.1422C39.1914 35.9305 40.2484 34.7352 41.0172 33.5891C41.5023 32.8649 41.8844 32.1477 42.1469 31.4563C42.4633 30.6289 42.6227 29.8156 42.6227 29.0352C42.625 28.2078 42.4586 27.4039 42.1328 26.6469ZM32.5 39.0969C32.5 39.0969 24.1562 33.7508 24.1562 29.0352C24.1562 26.6469 26.132 24.711 28.5695 24.711C30.2828 24.711 31.7688 25.6672 32.5 27.0641C33.2312 25.6672 34.7172 24.711 36.4305 24.711C38.868 24.711 40.8437 26.6469 40.8437 29.0352C40.8437 33.7508 32.5 39.0969 32.5 39.0969Z" fill="#FF85B1"/>
</g>
<defs>
<filter id="filter0_dd_192_23445" x="0.5" y="0" width="64" height="64" filterUnits="userSpaceOnUse" color-interpolation-filters="sRGB">
<feFlood flood-opacity="0" result="BackgroundImageFix"/>
<feColorMatrix in="SourceAlpha" type="matrix" values="0 0 0 0 0 0 0 0 0 0 0 0 0 0 0 0 0 0 127 0" result="hardAlpha"/>
<feOffset/>
<feGaussianBlur stdDeviation="4"/>
<feColorMatrix type="matrix" values="0 0 0 0 0.0784314 0 0 0 0 0.0784314 0 0 0 0 0.0784314 0 0 0 0.08 0"/>
<feBlend mode="normal" in2="BackgroundImageFix" result="effect1_dropShadow_192_23445"/>
<feColorMatrix in="SourceAlpha" type="matrix" values="0 0 0 0 0 0 0 0 0 0 0 0 0 0 0 0 0 0 127 0" result="hardAlpha"/>
<feOffset/>
<feGaussianBlur stdDeviation="0.5"/>
<feColorMatrix type="matrix" values="0 0 0 0 0.0784314 0 0 0 0 0.0784314 0 0 0 0 0.0784314 0 0 0 0.04 0"/>
<feBlend mode="normal" in2="effect1_dropShadow_192_23445" result="effect2_dropShadow_192_23445"/>
<feBlend mode="normal" in="SourceGraphic" in2="effect2_dropShadow_192_23445" result="shape"/>
</filter>
</defs>
</svg>
