<svg width="22" height="22" viewBox="0 0 22 22" fill="none" xmlns="http://www.w3.org/2000/svg">
<g id="left">
<path id="Vector" d="M14.5007 4.71376V3.03096C14.5007 2.8851 14.3524 2.80455 14.2522 2.89381L5.57088 10.5589C5.49712 10.6238 5.43744 10.7068 5.39638 10.8017C5.35533 10.8966 5.33398 11.0008 5.33398 11.1064C5.33398 11.2121 5.35533 11.3163 5.39638 11.4112C5.43744 11.5061 5.49712 11.5891 5.57088 11.654L14.2522 19.3191C14.3543 19.4083 14.5007 19.3278 14.5007 19.1819V17.4991C14.5007 17.3925 14.4564 17.2901 14.3832 17.2248L7.45043 11.1075L14.3832 4.98806C14.4564 4.92275 14.5007 4.82043 14.5007 4.71376Z" fill="#1D2433"/>
</g>
</svg>
