<svg width="16" height="16" viewBox="0 0 16 16" fill="none" xmlns="http://www.w3.org/2000/svg">
<g id="ic_google">
<path id="Vector" d="M14.5367 6.69425H13.9997V6.66659H7.99967V9.33325H11.7673C11.2177 10.8856 9.74067 11.9999 7.99967 11.9999C5.79067 11.9999 3.99967 10.2089 3.99967 7.99992C3.99967 5.79092 5.79067 3.99992 7.99967 3.99992C9.01934 3.99992 9.94701 4.38459 10.6533 5.01292L12.539 3.12725C11.3483 2.01759 9.75567 1.33325 7.99967 1.33325C4.31801 1.33325 1.33301 4.31825 1.33301 7.99992C1.33301 11.6816 4.31801 14.6666 7.99967 14.6666C11.6813 14.6666 14.6663 11.6816 14.6663 7.99992C14.6663 7.55292 14.6203 7.11659 14.5367 6.69425Z" fill="#FFC107"/>
<path id="Vector_2" d="M2.10156 4.89692L4.2919 6.50325C4.88456 5.03592 6.3199 3.99992 7.99956 3.99992C9.01923 3.99992 9.9469 4.38459 10.6532 5.01292L12.5389 3.12725C11.3482 2.01759 9.75556 1.33325 7.99956 1.33325C5.4389 1.33325 3.21823 2.77892 2.10156 4.89692Z" fill="#FF3D00"/>
<path id="Vector_3" d="M8.00043 14.6667C9.72243 14.6667 11.2871 14.0077 12.4701 12.936L10.4068 11.19C9.71494 11.7161 8.86958 12.0007 8.00043 12C6.26643 12 4.7941 10.8943 4.23943 9.35132L2.06543 11.0263C3.16876 13.1853 5.40943 14.6667 8.00043 14.6667Z" fill="#4CAF50"/>
<path id="Vector_4" d="M14.537 6.69441H14V6.66675H8V9.33341H11.7677C11.5047 10.0722 11.0311 10.7178 10.4053 11.1904L10.4063 11.1897L12.4697 12.9357C12.3237 13.0684 14.6667 11.3334 14.6667 8.00008C14.6667 7.55308 14.6207 7.11675 14.537 6.69441Z" fill="#1976D2"/>
</g>
</svg>
