<svg width="123" height="18" viewBox="0 0 123 18" fill="none" xmlns="http://www.w3.org/2000/svg">
<g id="logo">
<g id="Vector">
<path d="M120.396 8.10275C120.367 8.2055 120.313 8.35229 120.233 8.54312C120.153 8.72661 120.059 8.93578 119.95 9.17064C119.848 9.4055 119.735 9.65872 119.612 9.93027C119.496 10.1945 119.38 10.4624 119.263 10.7339C119.22 10.8367 119.18 10.9138 119.144 10.9651C119.107 11.0092 119.049 11.0422 118.969 11.0642C118.889 11.0862 118.777 11.1009 118.632 11.1083C118.494 11.1083 118.297 11.1119 118.043 11.1193L116.529 11.1523L116.224 14.5211H121.813V14.9505C121.798 14.9651 121.736 15.0642 121.627 15.2477C121.518 15.4239 121.391 15.6367 121.246 15.8862C121.101 16.1358 120.948 16.389 120.789 16.6459C120.629 16.8954 120.494 17.0972 120.385 17.2514C120.313 17.3835 120.229 17.4862 120.135 17.5596C120.04 17.6404 119.935 17.6991 119.819 17.7358C119.71 17.7725 119.587 17.7945 119.449 17.8018C119.318 17.8092 119.173 17.8128 119.013 17.8128C118.359 17.8128 117.676 17.7982 116.965 17.7688C116.26 17.7395 115.556 17.7028 114.851 17.6587C114.147 17.6147 113.457 17.5633 112.781 17.5046C112.113 17.4532 111.492 17.3982 110.919 17.3394C110.868 17.3321 110.82 17.3028 110.777 17.2514C110.741 17.2 110.722 17.1413 110.722 17.0752C110.693 17.0752 110.712 17.0128 110.777 16.8881C110.85 16.7633 110.948 16.6018 111.071 16.4037C111.195 16.2055 111.329 15.9817 111.474 15.7321C111.627 15.4752 111.772 15.2183 111.91 14.9615L112.084 12.4844C112.113 12.0661 112.135 11.7541 112.15 11.5486C112.171 11.3431 112.182 11.233 112.182 11.2183C111.746 11.211 111.42 11.189 111.202 11.1523C110.991 11.1156 110.886 11.0349 110.886 10.9101C110.886 10.8514 110.937 10.7413 111.038 10.5798C111.147 10.4183 111.278 10.2349 111.431 10.0294C111.583 9.81651 111.743 9.59633 111.91 9.36881C112.084 9.14128 112.237 8.93211 112.367 8.74128L112.64 4.99817H112.607C112.447 5.0055 112.302 5.01284 112.171 5.02018C112.041 5.02018 111.921 5.02018 111.812 5.02018C111.463 5.02018 111.213 5.00183 111.06 4.96514C110.915 4.9211 110.842 4.84404 110.842 4.73394C110.842 4.68257 110.886 4.57615 110.973 4.41468C111.06 4.25321 111.169 4.06972 111.3 3.86422C111.431 3.65138 111.569 3.43119 111.714 3.20367C111.859 2.96881 111.99 2.75229 112.106 2.55413L112.76 1.43119H117.313L122.684 1.03486C122.691 1.03486 122.709 1.03853 122.739 1.04587C122.775 1.04587 122.811 1.05688 122.847 1.0789C122.884 1.09358 122.916 1.12294 122.946 1.16697C122.982 1.21101 123 1.27339 123 1.35413L122.837 1.92661C122.786 2.08807 122.724 2.26055 122.651 2.44404C122.579 2.62018 122.499 2.80367 122.412 2.9945L121.932 4.27156C121.882 4.39633 121.823 4.49174 121.758 4.5578C121.693 4.62385 121.555 4.66055 121.344 4.66789C120.792 4.68257 120.175 4.70826 119.492 4.74495C118.817 4.77431 118.04 4.80367 117.161 4.83303C117.132 4.93578 117.117 5.02018 117.117 5.08624C117.117 5.14495 117.11 5.26239 117.095 5.43853L117.041 5.94495C117.026 6.17982 117.005 6.43303 116.976 6.70459C116.947 6.97615 116.91 7.31009 116.867 7.70642C117.237 7.69174 117.597 7.67706 117.945 7.66239C118.301 7.64771 118.624 7.6367 118.915 7.62936C119.205 7.61468 119.456 7.60367 119.666 7.59633C119.884 7.58899 120.037 7.58532 120.124 7.58532C120.182 7.58532 120.247 7.60734 120.32 7.65138C120.393 7.69541 120.429 7.77982 120.429 7.90459C120.429 7.9633 120.418 8.02936 120.396 8.10275Z" fill="#62AAFF"/>
<path d="M98.2837 17.5927C98.32 17.0569 98.3563 16.5394 98.3926 16.0404C98.4289 15.5413 98.4616 15.0569 98.4906 14.5872L98.8828 9.39083C98.9264 8.9945 98.9627 8.63486 98.9918 8.31193C99.0208 7.98165 99.0426 7.66239 99.0571 7.35413C99.0789 7.03853 99.0971 6.72294 99.1116 6.40734C99.1334 6.0844 99.1552 5.72844 99.177 5.33945C98.9373 5.33211 98.6831 5.32844 98.4144 5.32844C98.1529 5.32844 97.8769 5.32844 97.5864 5.32844H95.4839C95.404 5.32844 95.3532 5.29908 95.3314 5.24037C95.3168 5.17431 95.3096 5.1156 95.3096 5.06422V4.98716L96.5079 1.8055L96.497 1.76147C96.497 1.72477 96.5188 1.69541 96.5624 1.67339C96.6132 1.64404 96.7222 1.62202 96.8892 1.60734C97.8915 1.54862 98.861 1.49358 99.7979 1.4422C100.742 1.38349 101.672 1.33211 102.587 1.28807C103.509 1.24404 104.428 1.2 105.343 1.15596C106.265 1.11193 107.213 1.07156 108.186 1.03486C108.273 1.03486 108.364 1.04587 108.459 1.06789C108.56 1.08991 108.611 1.17064 108.611 1.31009C108.611 1.32477 108.608 1.33945 108.6 1.35413C108.593 1.36881 108.589 1.38349 108.589 1.39817C108.473 1.69908 108.364 1.98532 108.263 2.25688C108.168 2.52844 108.074 2.79633 107.979 3.06055C107.885 3.32477 107.787 3.59266 107.685 3.86422C107.591 4.13578 107.485 4.42202 107.369 4.72294C107.362 4.73028 107.347 4.76697 107.326 4.83303C107.304 4.89174 107.271 4.96147 107.228 5.0422C107.184 5.1156 107.126 5.18532 107.053 5.25138C106.981 5.31743 106.89 5.35413 106.781 5.36147C106.745 5.35413 106.708 5.35046 106.672 5.35046C106.636 5.35046 106.596 5.35046 106.552 5.35046H103.644C103.607 5.72477 103.571 6.1211 103.535 6.53945C103.506 6.9578 103.469 7.36514 103.426 7.76147L102.63 16.3596C102.623 16.4257 102.609 16.4917 102.587 16.5578C102.572 16.6239 102.525 16.6716 102.445 16.7009L99.3622 17.8239C99.2823 17.8532 99.177 17.8899 99.0462 17.9339C98.9155 17.978 98.7884 18 98.6649 18C98.5633 18 98.4725 17.9743 98.3926 17.9229C98.32 17.8716 98.2837 17.7761 98.2837 17.6367V17.5927Z" fill="#62AAFF"/>
<path d="M80.7682 9.73211C80.7682 10.2606 80.8227 10.7927 80.9317 11.3284C81.0479 11.8569 81.2367 12.3339 81.4982 12.7596C81.7596 13.1853 82.1046 13.5303 82.5331 13.7945C82.9616 14.0587 83.4918 14.1908 84.1236 14.1908C84.6102 14.1615 85.0351 14.0624 85.3982 13.8936C85.7686 13.7174 86.0845 13.4936 86.346 13.222C86.6147 12.9431 86.8362 12.6275 87.0105 12.2752C87.1848 11.9156 87.3228 11.5413 87.4245 11.1523C87.5262 10.756 87.5952 10.3523 87.6315 9.94128C87.6751 9.53028 87.6968 9.13395 87.6968 8.75229C87.6968 8.23119 87.6279 7.72844 87.4899 7.24404C87.3519 6.75229 87.1449 6.31927 86.8689 5.94495C86.5929 5.57064 86.2479 5.26972 85.834 5.0422C85.4273 4.81468 84.9516 4.70092 84.4069 4.70092C83.9784 4.70092 83.5898 4.78165 83.2412 4.94312C82.8998 5.10459 82.5948 5.3211 82.3261 5.59266C82.0574 5.85688 81.825 6.16514 81.6289 6.51743C81.44 6.86239 81.2803 7.22202 81.1495 7.59633C81.0261 7.9633 80.9317 8.33395 80.8663 8.70826C80.8082 9.07523 80.7755 9.41651 80.7682 9.73211ZM82.8926 17.8128C81.8032 17.8128 80.83 17.6073 79.973 17.1963C79.116 16.7853 78.3897 16.2312 77.7942 15.5339C77.2059 14.8294 76.752 14.0183 76.4324 13.1009C76.1201 12.1761 75.964 11.2 75.964 10.1725C75.964 9.02018 76.1238 7.95963 76.4433 6.99083C76.7701 6.01468 77.2241 5.15229 77.8051 4.40367C78.3861 3.64771 79.076 3.01284 79.8749 2.49908C80.6811 1.97798 81.5635 1.59266 82.5222 1.34312C82.6093 1.34312 82.6747 1.27339 82.7183 1.13394C82.7691 0.994495 82.8127 0.840367 82.849 0.67156C82.8853 0.502752 82.9289 0.348624 82.9797 0.209174C83.0306 0.0697248 83.1032 0 83.1976 0C84.6066 0.146789 85.8739 0.4 86.9996 0.759633C88.1253 1.11193 89.0804 1.61835 89.8648 2.2789C90.6491 2.93945 91.2483 3.77615 91.6623 4.78899C92.0835 5.7945 92.2941 7.02385 92.2941 8.47706C92.2941 9.40917 92.1815 10.2862 91.9564 11.1083C91.7313 11.9303 91.4153 12.6899 91.0086 13.3872C90.6019 14.0771 90.1117 14.6972 89.5379 15.2477C88.9714 15.7908 88.3396 16.2532 87.6424 16.6349C86.9452 17.0165 86.1935 17.3064 85.3873 17.5046C84.5884 17.7101 83.7568 17.8128 82.8926 17.8128Z" fill="#62AAFF"/>
<path d="M68.1661 16.2716C68.1297 16.367 68.0934 16.4587 68.0571 16.5468C68.0281 16.6349 67.9881 16.7156 67.9373 16.789C67.8864 16.8624 67.8211 16.9284 67.7412 16.9872C67.6686 17.0459 67.5741 17.0936 67.4579 17.1303C67.0004 17.2771 66.5465 17.4018 66.0962 17.5046C65.6459 17.6147 65.192 17.7468 64.7344 17.9009C64.6473 17.9303 64.571 17.9523 64.5057 17.967C64.4403 17.9817 64.3786 17.989 64.3205 17.989C64.1897 17.989 64.0953 17.956 64.0372 17.8899C63.9791 17.8239 63.9355 17.7395 63.9065 17.6367L60.1807 2.66422C60.1226 2.47339 60.0936 2.3156 60.0936 2.19083C60.0936 2.02936 60.1444 1.89725 60.2461 1.7945C60.3478 1.6844 60.5112 1.59633 60.7363 1.53028C60.9687 1.45688 61.2629 1.39083 61.6187 1.33211C61.9819 1.27339 62.4249 1.20734 62.9478 1.13394C63.202 1.09725 63.4163 1.07156 63.5906 1.05688C63.7649 1.03486 63.9138 1.02385 64.0372 1.02385C64.2478 1.02385 64.3858 1.06055 64.4512 1.13394C64.5238 1.2 64.5892 1.30642 64.6473 1.45321L66.728 10.5468L69.6585 2.19083C69.7021 2.07339 69.7384 1.97798 69.7675 1.90459C69.8038 1.83119 69.8655 1.76881 69.9527 1.71743C70.0471 1.65872 70.1851 1.60367 70.3666 1.55229C70.5555 1.49358 70.8242 1.42752 71.1728 1.35413C71.7175 1.2367 72.1678 1.15229 72.5237 1.10092C72.8795 1.04954 73.1664 1.02385 73.3843 1.02385C73.6603 1.02385 73.8382 1.05688 73.9181 1.12294C74.0052 1.18899 74.0488 1.2844 74.0488 1.40917C74.0561 1.46055 74.0452 1.5156 74.0161 1.57431C73.9944 1.62569 73.9689 1.69174 73.9399 1.77248L68.1661 16.2716Z" fill="#62AAFF"/>
<path d="M57.0019 5.80184C56.9946 6.43303 56.9329 6.99817 56.8167 7.49725C56.7077 7.99633 56.5479 8.44771 56.3373 8.85138C56.134 9.24771 55.8834 9.60734 55.5856 9.93027C55.2951 10.2459 54.961 10.5431 54.5834 10.822C53.8571 11.3505 53.0619 11.7505 52.1976 12.022C51.3333 12.2862 50.4655 12.4183 49.5939 12.4183C49.4487 12.4183 49.3034 12.4147 49.1582 12.4073C49.0202 12.4 48.8786 12.389 48.7333 12.3743L48.3738 16.3927L48.1886 16.7339C48.1741 16.7633 48.0506 16.822 47.8182 16.9101C47.5858 16.9982 47.2953 17.1009 46.9467 17.2183L46.2604 17.4495C46.0425 17.5303 45.85 17.6037 45.683 17.6697C45.5159 17.7358 45.3598 17.7945 45.2145 17.8459C45.0693 17.8972 44.9277 17.9339 44.7897 17.956C44.6517 17.9853 44.5064 18 44.3539 18C44.2522 18 44.1723 17.9743 44.1142 17.9229C44.0561 17.8716 44.0271 17.7725 44.0271 17.6257L44.1469 15.7431C44.1687 15.3688 44.1941 14.9945 44.2232 14.6202C44.2595 14.2385 44.2922 13.8055 44.3212 13.3211L44.5282 10.6899C44.5718 10.1541 44.6117 9.61835 44.648 9.08257C44.6844 8.54679 44.7207 8.0367 44.757 7.55229C44.7933 7.06789 44.826 6.61651 44.855 6.19817C44.8841 5.77248 44.9095 5.40183 44.9313 5.08624C44.5391 5.17431 44.2232 5.24037 43.9835 5.2844C43.7511 5.3211 43.5732 5.33945 43.4497 5.33945C43.2972 5.33945 43.2209 5.27339 43.2209 5.14128C43.3226 4.78165 43.417 4.42936 43.5042 4.0844C43.5841 3.79083 43.664 3.48991 43.7438 3.18165C43.831 2.86606 43.9036 2.60183 43.9617 2.38899C43.998 2.25688 44.038 2.1578 44.0816 2.09174C44.1324 2.01835 44.1941 1.9633 44.2668 1.92661C44.3466 1.88257 44.4447 1.84587 44.5609 1.81651C44.6844 1.77982 44.8332 1.73211 45.0075 1.67339C45.1455 1.62936 45.338 1.58165 45.5849 1.53028C45.8391 1.47156 46.126 1.41651 46.4456 1.36514C46.7724 1.30642 47.1246 1.25138 47.5023 1.2C47.8799 1.14862 48.2612 1.10459 48.6461 1.06789C49.0383 1.02385 49.4233 0.990826 49.8009 0.968807C50.1786 0.93945 50.5344 0.924771 50.8685 0.924771C51.6965 0.924771 52.4808 1.00183 53.2216 1.15596C53.9624 1.31009 54.6124 1.57431 55.1717 1.94862C55.7309 2.3156 56.1739 2.81468 56.5007 3.44587C56.8348 4.06973 57.0019 4.85505 57.0019 5.80184ZM49.0383 9.10459C49.0383 9.18532 49.0529 9.25872 49.0819 9.32477C49.111 9.38349 49.1908 9.41284 49.3216 9.41284C49.5249 9.41284 49.7646 9.36881 50.0406 9.28073C50.3238 9.18532 50.6034 9.04587 50.8794 8.86239C51.1627 8.6789 51.4241 8.45138 51.6638 8.17982C51.9035 7.90826 52.085 7.58899 52.2085 7.22202C52.2593 7.07523 52.2993 6.88807 52.3283 6.66055C52.3646 6.43303 52.3828 6.16514 52.3828 5.85688C52.3828 5.34312 52.2049 4.96514 51.849 4.72294C51.5004 4.48073 51.0428 4.35963 50.4763 4.35963C50.3819 4.35963 50.273 4.36697 50.1495 4.38165C50.0333 4.38899 49.9207 4.40734 49.8118 4.4367C49.7101 4.46605 49.623 4.50275 49.5504 4.54679C49.4777 4.58349 49.4378 4.63486 49.4305 4.70092L49.4087 4.94312C49.4015 5.03853 49.3869 5.19633 49.3652 5.41651C49.3434 5.62936 49.3179 5.87523 49.2889 6.15413C49.2671 6.43303 49.2417 6.72661 49.2126 7.03486C49.1908 7.34312 49.1654 7.6367 49.1364 7.9156C49.1146 8.1945 49.0928 8.44037 49.071 8.65321C49.0565 8.86606 49.0456 9.01651 49.0383 9.10459Z" fill="#62AAFF"/>
<path d="M33.7453 17.5927L34.29 10.0624C34.4716 7.53761 34.6059 5.6844 34.6931 4.50275C34.7802 3.3211 34.8238 2.73394 34.8238 2.74128C34.8311 2.60917 34.8383 2.49908 34.8456 2.41101C34.8529 2.32294 34.8674 2.24954 34.8892 2.19083C34.911 2.13211 34.94 2.08807 34.9763 2.05872C35.0126 2.02936 35.0671 2.00734 35.1397 1.99266L38.9091 1.0789C39.0035 1.04954 39.1015 1.03486 39.2032 1.03486C39.3049 1.03486 39.3739 1.06789 39.4102 1.13394C39.4465 1.19266 39.4647 1.31743 39.4647 1.50826C39.4138 1.9633 39.3739 2.38899 39.3448 2.78532C39.3158 3.18165 39.2904 3.55963 39.2686 3.91927C39.2541 4.2789 39.2395 4.62752 39.225 4.96514C39.2105 5.29541 39.1923 5.62569 39.1705 5.95596C39.127 6.3156 39.087 6.67523 39.0507 7.03486C39.0216 7.3945 38.9926 7.76881 38.9635 8.1578C38.9345 8.53945 38.9018 8.94679 38.8655 9.37982C38.8364 9.8055 38.8001 10.2716 38.7566 10.778L38.2772 16.5798C38.27 16.6459 38.2554 16.7119 38.2336 16.778C38.2191 16.8367 38.1719 16.8844 38.092 16.9211C38.0848 16.9211 38.0412 16.9358 37.9613 16.9651C37.8814 16.9945 37.7761 17.0349 37.6454 17.0862C37.5146 17.1303 37.3621 17.178 37.1878 17.2294C37.0135 17.2807 36.8283 17.3284 36.6322 17.3725C36.3054 17.4459 36.0185 17.5193 35.7716 17.5927C35.5319 17.6661 35.3177 17.7321 35.1289 17.7908C34.94 17.8569 34.7657 17.9083 34.6059 17.945C34.4462 17.9817 34.2864 18 34.1266 18C34.0177 18 33.9269 17.9706 33.8543 17.9119C33.7816 17.8532 33.7453 17.7468 33.7453 17.5927Z" fill="#62AAFF"/>
<path d="M21.1104 16.3596C21.1032 16.4257 21.0886 16.4917 21.0669 16.5578C21.0523 16.6165 21.0051 16.6642 20.9252 16.7009C20.8962 16.7156 20.7509 16.7706 20.4895 16.8661C20.2353 16.9541 19.9375 17.0606 19.5962 17.1853C19.2621 17.3028 18.928 17.4202 18.5939 17.5376C18.2671 17.6624 18.0165 17.7578 17.8422 17.8239C17.7551 17.8605 17.6461 17.8972 17.5154 17.9339C17.3919 17.978 17.2685 18 17.145 18C17.0433 18 16.9525 17.9743 16.8727 17.9229C16.8 17.8716 16.7637 17.7761 16.7637 17.6367C16.7637 17.3138 16.771 17.0202 16.7855 16.756C16.8073 16.4844 16.8327 16.2018 16.8618 15.9083C16.8908 15.6147 16.9199 15.2917 16.9489 14.9394C16.9852 14.5798 17.0179 14.1541 17.047 13.6624C17.0833 13.0165 17.1232 12.3963 17.1668 11.8018C17.2104 11.2 17.2539 10.5761 17.2975 9.93027L17.45 8.04771C17.4718 7.73945 17.4936 7.42752 17.5154 7.11193C17.5372 6.78899 17.559 6.45872 17.5808 6.1211L17.7006 4.77798C17.7006 4.7633 17.6788 4.75596 17.6352 4.75596C17.5771 4.75596 17.4791 4.77064 17.3411 4.8C17.2031 4.82202 17.0397 4.85138 16.8509 4.88807C16.662 4.92477 16.4514 4.96514 16.219 5.00917C15.9939 5.04587 15.7615 5.08257 15.5218 5.11927C15.4637 5.11927 15.4056 5.10826 15.3475 5.08624C15.2967 5.05688 15.2712 5.02385 15.2712 4.98716C15.2712 4.9578 15.2785 4.93578 15.293 4.9211L17.0579 1.8055C17.4573 1.71743 17.8858 1.62936 18.3433 1.54128C18.8082 1.44587 19.3057 1.36147 19.8358 1.28807C20.366 1.21468 20.9289 1.15596 21.5244 1.11193C22.1199 1.06055 22.7518 1.03486 23.42 1.03486C24.1753 1.04954 24.9088 1.12661 25.6206 1.26606C26.3396 1.39817 26.975 1.62569 27.527 1.94862C28.0862 2.26422 28.5329 2.69725 28.867 3.24771C29.2083 3.79083 29.379 4.48073 29.379 5.31743C29.379 5.77982 29.2991 6.2055 29.1393 6.5945C28.9868 6.98349 28.7871 7.33578 28.5401 7.65138C28.3005 7.95963 28.0354 8.23486 27.7449 8.47706C27.4544 8.71193 27.1748 8.91376 26.906 9.08257C26.6446 9.25138 26.4122 9.38716 26.2088 9.48991C26.0055 9.58532 25.8675 9.64771 25.7949 9.67706C25.7949 9.69174 25.7985 9.71009 25.8057 9.73211C25.8203 9.75413 25.8457 9.79817 25.882 9.86422C25.9183 9.92294 25.9692 10.011 26.0345 10.1284C26.1071 10.2385 26.1979 10.3927 26.3069 10.5908C26.4231 10.767 26.5611 11.0018 26.7208 11.2954C26.8806 11.589 27.0695 11.9376 27.2873 12.3413C27.5125 12.7376 27.7703 13.1817 28.0608 13.6734C28.3513 14.1651 28.6854 14.6936 29.0631 15.2587C29.1865 15.3688 29.3281 15.4385 29.4879 15.4679C29.6477 15.4899 29.7966 15.5046 29.9346 15.5119C30.0726 15.5119 30.1888 15.5193 30.2832 15.5339C30.3776 15.5413 30.4248 15.5853 30.4248 15.6661C30.4248 15.7248 30.3631 15.7945 30.2396 15.8752C30.1234 15.9486 29.9854 16.0257 29.8256 16.1064C29.6659 16.1872 29.5025 16.2642 29.3354 16.3376C29.1756 16.411 29.0522 16.4697 28.965 16.5138C28.7907 16.6018 28.6091 16.6862 28.4203 16.767C28.2315 16.8477 28.0281 16.9394 27.8102 17.0422C27.5924 17.1376 27.3491 17.2514 27.0803 17.3835C26.8189 17.5156 26.5211 17.6734 26.187 17.8569C26.0999 17.9083 26.0164 17.9413 25.9365 17.956C25.8638 17.978 25.7949 17.989 25.7295 17.989C25.5988 17.989 25.4862 17.956 25.3918 17.8899C25.2974 17.8312 25.2175 17.7578 25.1521 17.6697C25.0867 17.5817 25.0323 17.4899 24.9887 17.3945C24.9524 17.3064 24.9197 17.233 24.8906 17.1743L21.6442 10.2606L21.1104 16.3596ZM21.775 8.90642C22.1454 8.90642 22.5303 8.81101 22.9297 8.62018C23.3292 8.42936 23.6923 8.18349 24.0191 7.88257C24.3459 7.58165 24.6147 7.24037 24.8253 6.85872C25.0359 6.47706 25.1412 6.09174 25.1412 5.70275C25.1412 4.63853 24.5094 4.10642 23.2457 4.10642C23.006 4.10642 22.8063 4.12477 22.6465 4.16147C22.4867 4.19083 22.3414 4.21284 22.2107 4.22752L21.775 8.90642Z" fill="#62AAFF"/>
<path d="M2.97407 17.5927C3.01038 17.0569 3.04669 16.5394 3.08301 16.0404C3.11932 15.5413 3.152 15.0569 3.18105 14.5872L3.57324 9.39083C3.61681 8.9945 3.65313 8.63486 3.68218 8.31193C3.71123 7.98165 3.73302 7.66239 3.74754 7.35413C3.76933 7.03853 3.78749 6.72294 3.80201 6.40734C3.8238 6.0844 3.84559 5.72844 3.86738 5.33945C3.62771 5.33211 3.37351 5.32844 3.1048 5.32844C2.84334 5.32844 2.56736 5.32844 2.27685 5.32844H0.174304C0.0944148 5.32844 0.0435761 5.29908 0.021788 5.24037C0.00726268 5.17431 0 5.1156 0 5.06422V4.98716L1.19834 1.8055L1.18745 1.76147C1.18745 1.72477 1.20924 1.69541 1.25281 1.67339C1.30365 1.64404 1.41259 1.62202 1.57963 1.60734C2.58188 1.54862 3.55145 1.49358 4.48834 1.4422C5.43248 1.38349 6.36211 1.33211 7.2772 1.28807C8.19956 1.24404 9.11829 1.2 10.0334 1.15596C10.9558 1.11193 11.9035 1.07156 12.8767 1.03486C12.9639 1.03486 13.0547 1.04587 13.1491 1.06789C13.2508 1.08991 13.3016 1.17064 13.3016 1.31009C13.3016 1.32477 13.298 1.33945 13.2907 1.35413C13.2834 1.36881 13.2798 1.38349 13.2798 1.39817C13.1636 1.69908 13.0547 1.98532 12.953 2.25688C12.8586 2.52844 12.7642 2.79633 12.6697 3.06055C12.5753 3.32477 12.4773 3.59266 12.3756 3.86422C12.2812 4.13578 12.1759 4.42202 12.0597 4.72294C12.0524 4.73028 12.0379 4.76697 12.0161 4.83303C11.9943 4.89174 11.9616 4.96147 11.9181 5.0422C11.8745 5.1156 11.8164 5.18532 11.7438 5.25138C11.6711 5.31743 11.5803 5.35413 11.4714 5.36147C11.4351 5.35413 11.3988 5.35046 11.3625 5.35046C11.3261 5.35046 11.2862 5.35046 11.2426 5.35046H8.33392C8.29761 5.72477 8.2613 6.1211 8.22498 6.53945C8.19593 6.9578 8.15962 7.36514 8.11604 7.76147L7.32078 16.3596C7.31352 16.4257 7.29899 16.4917 7.2772 16.5578C7.26268 16.6239 7.21547 16.6716 7.13558 16.7009L4.05257 17.8239C3.97269 17.8532 3.86738 17.8899 3.73665 17.9339C3.60592 17.978 3.47882 18 3.35536 18C3.25368 18 3.1629 17.9743 3.08301 17.9229C3.01038 17.8716 2.97407 17.7761 2.97407 17.6367V17.5927Z" fill="#62AAFF"/>
</g>
</g>
</svg>
