<svg width="78" height="24" viewBox="0 0 78 24" fill="none" xmlns="http://www.w3.org/2000/svg">
<g clip-path="url(#clip0_3705_70432)">
<path d="M39.102 10.6425V17.8703H36.0107V10.9137C36.0107 9.46713 35.1225 8.37563 33.5228 8.37563C32.0685 8.37563 31.0311 9.46713 31.0311 10.9426L31.0273 17.8703H27.946V5.5558H30.9067V7.00371C31.6506 5.78904 33.1782 5.41297 34.2579 5.41297C37.8045 5.41297 39.102 7.87508 39.102 10.6425ZM9.80753 5.55973L6.74734 13.2828L3.61003 5.55842H0L5.09783 17.109L2.18692 23.9686H5.67006L13.4288 5.55973H9.80753ZM53.1366 11.7995C53.1366 15.3191 50.4284 18.1717 47.0871 18.1717C43.7458 18.1717 41.0376 15.3191 41.0376 11.7995C41.0376 8.27997 43.7458 5.42739 47.0871 5.42739C50.4284 5.42739 53.1366 8.27997 53.1366 11.7995ZM50.0963 11.7995C50.0963 10.0489 48.7491 8.62983 47.0871 8.62983C45.4252 8.62983 44.0779 10.0489 44.0779 11.7995C44.0779 13.5501 45.4252 14.9692 47.0871 14.9692C48.7491 14.9679 50.0963 13.5488 50.0963 11.7995ZM25.5053 12.1651V17.8703H22.7176V16.6006C21.8082 17.5676 20.6314 18.1546 19.3638 18.1546C16.0225 18.1546 13.3143 15.302 13.3143 11.7825C13.3143 8.26294 16.0225 5.41035 19.3638 5.41035C22.6989 5.41166 25.5053 8.19087 25.5053 12.1651ZM22.3717 11.7995C22.3717 10.0489 21.0245 8.62983 19.3625 8.62983C17.7006 8.62983 16.3534 10.0489 16.3534 11.7995C16.3534 13.5501 17.7006 14.9692 19.3625 14.9692C21.0245 14.9679 22.3717 13.5488 22.3717 11.7995ZM78 12.1651V17.8703H75.211V16.6006C74.3016 17.5676 73.1261 18.1546 71.8572 18.1546C68.5159 18.1546 65.8078 15.302 65.8078 11.7825C65.8078 8.26294 68.5159 5.41035 71.8572 5.41035C75.1936 5.41166 78 8.19087 78 12.1651ZM74.8664 11.7995C74.8664 10.0489 73.5192 8.62983 71.8572 8.62983C70.1953 8.62983 68.848 10.0489 68.848 11.7995C68.848 13.5501 70.1953 14.9692 71.8572 14.9692C73.5192 14.9679 74.8664 13.5488 74.8664 11.7995ZM55.112 17.8677H58.2593V0H55.112V17.8677ZM60.7833 17.6973C60.7833 19.9773 59.4796 20.7307 58.2829 20.7307C58.2829 20.7307 58.2817 24 58.2829 24C60.078 24 63.8771 23.4628 63.8958 17.755H63.897V5.5558H60.7833V17.6973Z" fill="#FF3478"/>
</g>
<defs>
<clipPath id="clip0_3705_70432">
<rect width="78" height="24" fill="white"/>
</clipPath>
</defs>
</svg>
