<svg width="32" height="32" viewBox="0 0 32 32" fill="none" xmlns="http://www.w3.org/2000/svg">
<path d="M1.11105 32C-4.81151 26.8986 14.8732 8.72272 14.8732 0V32H1.11105Z" fill="#2388FF"/>
<path fill-rule="evenodd" clip-rule="evenodd" d="M2.27341 29.6812H12.6197V11.1393C11.5002 12.9243 10.2643 14.756 9.0632 16.5363C8.57626 17.258 8.09503 17.9713 7.62955 18.6696C5.523 21.8298 3.75736 24.6569 2.8498 26.9493C2.39662 28.094 2.23915 28.9106 2.25452 29.4501C2.25699 29.5367 2.2634 29.6131 2.27341 29.6812ZM12.6197 6.66492C11.1699 9.34673 9.19713 12.271 7.24232 15.1686C2.4715 22.2406 -2.19262 29.1544 1.11105 32H14.8732V0C14.8732 1.86343 13.9749 4.15828 12.6197 6.66492Z" fill="#2388FF"/>
<path d="M32 32C20.9577 25.1594 17.5775 13.6508 17.5775 7.42029V32H32Z" fill="#2388FF"/>
<path fill-rule="evenodd" clip-rule="evenodd" d="M32 32H17.5775V7.42029C17.5775 10.1207 18.2124 13.8125 19.831 17.6861C21.5513 21.8033 24.3829 26.1258 28.7441 29.6812C29.7469 30.4986 30.8305 31.2755 32 32ZM25.2953 29.6812H19.831V22.7394C21.246 25.1407 23.0446 27.5076 25.2953 29.6812Z" fill="#2388FF"/>
</svg>
