<svg width="65" height="64" viewBox="0 0 65 64" fill="none" xmlns="http://www.w3.org/2000/svg">
<g filter="url(#filter0_dd_192_23439)">
<circle cx="32.5" cy="32" r="24" fill="white"/>
<path d="M41.8187 40.0273L35.732 33.9406C36.6766 32.7195 37.1875 31.2266 37.1875 29.6563C37.1875 27.7766 36.4539 26.0141 35.1273 24.6852C33.8008 23.3562 32.0336 22.625 30.1562 22.625C28.2789 22.625 26.5117 23.3586 25.1852 24.6852C23.8562 26.0117 23.125 27.7766 23.125 29.6562C23.125 31.5336 23.8586 33.3008 25.1852 34.6273C26.5117 35.9562 28.2766 36.6875 30.1562 36.6875C31.7266 36.6875 33.2172 36.1766 34.4383 35.2344L40.525 41.3187C40.5428 41.3366 40.564 41.3508 40.5874 41.3604C40.6107 41.3701 40.6357 41.3751 40.6609 41.3751C40.6862 41.3751 40.7112 41.3701 40.7345 41.3604C40.7578 41.3508 40.779 41.3366 40.7969 41.3187L41.8187 40.2992C41.8366 40.2814 41.8508 40.2602 41.8604 40.2369C41.8701 40.2135 41.8751 40.1885 41.8751 40.1633C41.8751 40.138 41.8701 40.113 41.8604 40.0897C41.8508 40.0664 41.8366 40.0452 41.8187 40.0273ZM33.8688 33.3688C32.875 34.3602 31.5578 34.9063 30.1562 34.9063C28.7547 34.9063 27.4375 34.3602 26.4438 33.3688C25.4523 32.375 24.9062 31.0578 24.9062 29.6563C24.9062 28.2547 25.4523 26.9352 26.4438 25.9438C27.4375 24.9523 28.7547 24.4063 30.1562 24.4063C31.5578 24.4063 32.8773 24.95 33.8688 25.9438C34.8602 26.9375 35.4062 28.2547 35.4062 29.6563C35.4062 31.0578 34.8602 32.3773 33.8688 33.3688Z" fill="#979C9E"/>
</g>
<defs>
<filter id="filter0_dd_192_23439" x="0.5" y="0" width="64" height="64" filterUnits="userSpaceOnUse" color-interpolation-filters="sRGB">
<feFlood flood-opacity="0" result="BackgroundImageFix"/>
<feColorMatrix in="SourceAlpha" type="matrix" values="0 0 0 0 0 0 0 0 0 0 0 0 0 0 0 0 0 0 127 0" result="hardAlpha"/>
<feOffset/>
<feGaussianBlur stdDeviation="4"/>
<feColorMatrix type="matrix" values="0 0 0 0 0.0784314 0 0 0 0 0.0784314 0 0 0 0 0.0784314 0 0 0 0.08 0"/>
<feBlend mode="normal" in2="BackgroundImageFix" result="effect1_dropShadow_192_23439"/>
<feColorMatrix in="SourceAlpha" type="matrix" values="0 0 0 0 0 0 0 0 0 0 0 0 0 0 0 0 0 0 127 0" result="hardAlpha"/>
<feOffset/>
<feGaussianBlur stdDeviation="0.5"/>
<feColorMatrix type="matrix" values="0 0 0 0 0.0784314 0 0 0 0 0.0784314 0 0 0 0 0.0784314 0 0 0 0.04 0"/>
<feBlend mode="normal" in2="effect1_dropShadow_192_23439" result="effect2_dropShadow_192_23439"/>
<feBlend mode="normal" in="SourceGraphic" in2="effect2_dropShadow_192_23439" result="shape"/>
</filter>
</defs>
</svg>
