<svg width="24" height="24" viewBox="0 0 24 24" fill="none" xmlns="http://www.w3.org/2000/svg">
<circle cx="12" cy="12" r="12" fill="#F2F4F5"/>
<path d="M8.02656 15.75C8.05781 15.75 8.08906 15.7469 8.12031 15.7422L10.7484 15.2812C10.7797 15.275 10.8094 15.2609 10.8313 15.2375L17.4547 8.61406C17.4692 8.59961 17.4807 8.58244 17.4885 8.56354C17.4963 8.54463 17.5004 8.52437 17.5004 8.50391C17.5004 8.48344 17.4963 8.46318 17.4885 8.44428C17.4807 8.42538 17.4692 8.40821 17.4547 8.39375L14.8578 5.79531C14.8281 5.76563 14.7891 5.75 14.7469 5.75C14.7047 5.75 14.6656 5.76563 14.6359 5.79531L8.0125 12.4187C7.98906 12.4422 7.975 12.4703 7.96875 12.5016L7.50781 15.1297C7.49261 15.2134 7.49804 15.2995 7.52364 15.3807C7.54923 15.4618 7.59421 15.5355 7.65469 15.5953C7.75781 15.6953 7.8875 15.75 8.02656 15.75ZM9.07969 13.025L14.7469 7.35938L15.8922 8.50469L10.225 14.1703L8.83594 14.4156L9.07969 13.025ZM17.75 17.0625H6.25C5.97344 17.0625 5.75 17.2859 5.75 17.5625V18.125C5.75 18.1938 5.80625 18.25 5.875 18.25H18.125C18.1938 18.25 18.25 18.1938 18.25 18.125V17.5625C18.25 17.2859 18.0266 17.0625 17.75 17.0625Z" fill="#23272F"/>
</svg>
